%TF.GenerationSoftware,KiCad,Pcbnew,(5.1.10)-1*%
%TF.CreationDate,2021-10-22T16:43:04-07:00*%
%TF.ProjectId,z80_ssd,7a38305f-7373-4642-9e6b-696361645f70,rev?*%
%TF.SameCoordinates,Original*%
%TF.FileFunction,Legend,Top*%
%TF.FilePolarity,Positive*%
%FSLAX46Y46*%
G04 Gerber Fmt 4.6, Leading zero omitted, Abs format (unit mm)*
G04 Created by KiCad (PCBNEW (5.1.10)-1) date 2021-10-22 16:43:04*
%MOMM*%
%LPD*%
G01*
G04 APERTURE LIST*
%ADD10C,0.150000*%
%ADD11C,0.120000*%
G04 APERTURE END LIST*
D10*
X144811714Y-51506380D02*
X144240285Y-51506380D01*
X144526000Y-51506380D02*
X144526000Y-50506380D01*
X144430761Y-50649238D01*
X144335523Y-50744476D01*
X144240285Y-50792095D01*
X176847809Y-129182761D02*
X176990666Y-129230380D01*
X177228761Y-129230380D01*
X177324000Y-129182761D01*
X177371619Y-129135142D01*
X177419238Y-129039904D01*
X177419238Y-128944666D01*
X177371619Y-128849428D01*
X177324000Y-128801809D01*
X177228761Y-128754190D01*
X177038285Y-128706571D01*
X176943047Y-128658952D01*
X176895428Y-128611333D01*
X176847809Y-128516095D01*
X176847809Y-128420857D01*
X176895428Y-128325619D01*
X176943047Y-128278000D01*
X177038285Y-128230380D01*
X177276380Y-128230380D01*
X177419238Y-128278000D01*
X177704952Y-128230380D02*
X178276380Y-128230380D01*
X177990666Y-129230380D02*
X177990666Y-128230380D01*
X178562095Y-128944666D02*
X179038285Y-128944666D01*
X178466857Y-129230380D02*
X178800190Y-128230380D01*
X179133523Y-129230380D01*
X179324000Y-128230380D02*
X179895428Y-128230380D01*
X179609714Y-129230380D02*
X179609714Y-128230380D01*
X180228761Y-128230380D02*
X180228761Y-129039904D01*
X180276380Y-129135142D01*
X180324000Y-129182761D01*
X180419238Y-129230380D01*
X180609714Y-129230380D01*
X180704952Y-129182761D01*
X180752571Y-129135142D01*
X180800190Y-129039904D01*
X180800190Y-128230380D01*
X181228761Y-129182761D02*
X181371619Y-129230380D01*
X181609714Y-129230380D01*
X181704952Y-129182761D01*
X181752571Y-129135142D01*
X181800190Y-129039904D01*
X181800190Y-128944666D01*
X181752571Y-128849428D01*
X181704952Y-128801809D01*
X181609714Y-128754190D01*
X181419238Y-128706571D01*
X181324000Y-128658952D01*
X181276380Y-128611333D01*
X181228761Y-128516095D01*
X181228761Y-128420857D01*
X181276380Y-128325619D01*
X181324000Y-128278000D01*
X181419238Y-128230380D01*
X181657333Y-128230380D01*
X181800190Y-128278000D01*
X146915238Y-117213333D02*
X146867619Y-117356190D01*
X146867619Y-117594285D01*
X146915238Y-117689523D01*
X146962857Y-117737142D01*
X147058095Y-117784761D01*
X147153333Y-117784761D01*
X147248571Y-117737142D01*
X147296190Y-117689523D01*
X147343809Y-117594285D01*
X147391428Y-117403809D01*
X147439047Y-117308571D01*
X147486666Y-117260952D01*
X147581904Y-117213333D01*
X147677142Y-117213333D01*
X147772380Y-117260952D01*
X147820000Y-117308571D01*
X147867619Y-117403809D01*
X147867619Y-117641904D01*
X147820000Y-117784761D01*
X146867619Y-118213333D02*
X147867619Y-118213333D01*
X147867619Y-118451428D01*
X147820000Y-118594285D01*
X147724761Y-118689523D01*
X147629523Y-118737142D01*
X147439047Y-118784761D01*
X147296190Y-118784761D01*
X147105714Y-118737142D01*
X147010476Y-118689523D01*
X146915238Y-118594285D01*
X146867619Y-118451428D01*
X146867619Y-118213333D01*
X146772380Y-118975238D02*
X146772380Y-119737142D01*
X146962857Y-120546666D02*
X146915238Y-120499047D01*
X146867619Y-120356190D01*
X146867619Y-120260952D01*
X146915238Y-120118095D01*
X147010476Y-120022857D01*
X147105714Y-119975238D01*
X147296190Y-119927619D01*
X147439047Y-119927619D01*
X147629523Y-119975238D01*
X147724761Y-120022857D01*
X147820000Y-120118095D01*
X147867619Y-120260952D01*
X147867619Y-120356190D01*
X147820000Y-120499047D01*
X147772380Y-120546666D01*
X146867619Y-120975238D02*
X147867619Y-120975238D01*
X147867619Y-121213333D01*
X147820000Y-121356190D01*
X147724761Y-121451428D01*
X147629523Y-121499047D01*
X147439047Y-121546666D01*
X147296190Y-121546666D01*
X147105714Y-121499047D01*
X147010476Y-121451428D01*
X146915238Y-121356190D01*
X146867619Y-121213333D01*
X146867619Y-120975238D01*
X171886952Y-118135380D02*
X172553619Y-118135380D01*
X171886952Y-119135380D01*
X172553619Y-119135380D01*
X173077428Y-118563952D02*
X172982190Y-118516333D01*
X172934571Y-118468714D01*
X172886952Y-118373476D01*
X172886952Y-118325857D01*
X172934571Y-118230619D01*
X172982190Y-118183000D01*
X173077428Y-118135380D01*
X173267904Y-118135380D01*
X173363142Y-118183000D01*
X173410761Y-118230619D01*
X173458380Y-118325857D01*
X173458380Y-118373476D01*
X173410761Y-118468714D01*
X173363142Y-118516333D01*
X173267904Y-118563952D01*
X173077428Y-118563952D01*
X172982190Y-118611571D01*
X172934571Y-118659190D01*
X172886952Y-118754428D01*
X172886952Y-118944904D01*
X172934571Y-119040142D01*
X172982190Y-119087761D01*
X173077428Y-119135380D01*
X173267904Y-119135380D01*
X173363142Y-119087761D01*
X173410761Y-119040142D01*
X173458380Y-118944904D01*
X173458380Y-118754428D01*
X173410761Y-118659190D01*
X173363142Y-118611571D01*
X173267904Y-118563952D01*
X174077428Y-118135380D02*
X174172666Y-118135380D01*
X174267904Y-118183000D01*
X174315523Y-118230619D01*
X174363142Y-118325857D01*
X174410761Y-118516333D01*
X174410761Y-118754428D01*
X174363142Y-118944904D01*
X174315523Y-119040142D01*
X174267904Y-119087761D01*
X174172666Y-119135380D01*
X174077428Y-119135380D01*
X173982190Y-119087761D01*
X173934571Y-119040142D01*
X173886952Y-118944904D01*
X173839333Y-118754428D01*
X173839333Y-118516333D01*
X173886952Y-118325857D01*
X173934571Y-118230619D01*
X173982190Y-118183000D01*
X174077428Y-118135380D01*
X175553619Y-119087761D02*
X175696476Y-119135380D01*
X175934571Y-119135380D01*
X176029809Y-119087761D01*
X176077428Y-119040142D01*
X176125047Y-118944904D01*
X176125047Y-118849666D01*
X176077428Y-118754428D01*
X176029809Y-118706809D01*
X175934571Y-118659190D01*
X175744095Y-118611571D01*
X175648857Y-118563952D01*
X175601238Y-118516333D01*
X175553619Y-118421095D01*
X175553619Y-118325857D01*
X175601238Y-118230619D01*
X175648857Y-118183000D01*
X175744095Y-118135380D01*
X175982190Y-118135380D01*
X176125047Y-118183000D01*
X176506000Y-119087761D02*
X176648857Y-119135380D01*
X176886952Y-119135380D01*
X176982190Y-119087761D01*
X177029809Y-119040142D01*
X177077428Y-118944904D01*
X177077428Y-118849666D01*
X177029809Y-118754428D01*
X176982190Y-118706809D01*
X176886952Y-118659190D01*
X176696476Y-118611571D01*
X176601238Y-118563952D01*
X176553619Y-118516333D01*
X176506000Y-118421095D01*
X176506000Y-118325857D01*
X176553619Y-118230619D01*
X176601238Y-118183000D01*
X176696476Y-118135380D01*
X176934571Y-118135380D01*
X177077428Y-118183000D01*
X177506000Y-119135380D02*
X177506000Y-118135380D01*
X177744095Y-118135380D01*
X177886952Y-118183000D01*
X177982190Y-118278238D01*
X178029809Y-118373476D01*
X178077428Y-118563952D01*
X178077428Y-118706809D01*
X178029809Y-118897285D01*
X177982190Y-118992523D01*
X177886952Y-119087761D01*
X177744095Y-119135380D01*
X177506000Y-119135380D01*
X172077428Y-121166333D02*
X172029809Y-121118714D01*
X171934571Y-120975857D01*
X171886952Y-120880619D01*
X171839333Y-120737761D01*
X171791714Y-120499666D01*
X171791714Y-120309190D01*
X171839333Y-120071095D01*
X171886952Y-119928238D01*
X171934571Y-119833000D01*
X172029809Y-119690142D01*
X172077428Y-119642523D01*
X173029809Y-120690142D02*
X172982190Y-120737761D01*
X172839333Y-120785380D01*
X172744095Y-120785380D01*
X172601238Y-120737761D01*
X172506000Y-120642523D01*
X172458380Y-120547285D01*
X172410761Y-120356809D01*
X172410761Y-120213952D01*
X172458380Y-120023476D01*
X172506000Y-119928238D01*
X172601238Y-119833000D01*
X172744095Y-119785380D01*
X172839333Y-119785380D01*
X172982190Y-119833000D01*
X173029809Y-119880619D01*
X173363142Y-121166333D02*
X173410761Y-121118714D01*
X173506000Y-120975857D01*
X173553619Y-120880619D01*
X173601238Y-120737761D01*
X173648857Y-120499666D01*
X173648857Y-120309190D01*
X173601238Y-120071095D01*
X173553619Y-119928238D01*
X173506000Y-119833000D01*
X173410761Y-119690142D01*
X173363142Y-119642523D01*
X174839333Y-119880619D02*
X174886952Y-119833000D01*
X174982190Y-119785380D01*
X175220285Y-119785380D01*
X175315523Y-119833000D01*
X175363142Y-119880619D01*
X175410761Y-119975857D01*
X175410761Y-120071095D01*
X175363142Y-120213952D01*
X174791714Y-120785380D01*
X175410761Y-120785380D01*
X176029809Y-119785380D02*
X176125047Y-119785380D01*
X176220285Y-119833000D01*
X176267904Y-119880619D01*
X176315523Y-119975857D01*
X176363142Y-120166333D01*
X176363142Y-120404428D01*
X176315523Y-120594904D01*
X176267904Y-120690142D01*
X176220285Y-120737761D01*
X176125047Y-120785380D01*
X176029809Y-120785380D01*
X175934571Y-120737761D01*
X175886952Y-120690142D01*
X175839333Y-120594904D01*
X175791714Y-120404428D01*
X175791714Y-120166333D01*
X175839333Y-119975857D01*
X175886952Y-119880619D01*
X175934571Y-119833000D01*
X176029809Y-119785380D01*
X176744095Y-119880619D02*
X176791714Y-119833000D01*
X176886952Y-119785380D01*
X177125047Y-119785380D01*
X177220285Y-119833000D01*
X177267904Y-119880619D01*
X177315523Y-119975857D01*
X177315523Y-120071095D01*
X177267904Y-120213952D01*
X176696476Y-120785380D01*
X177315523Y-120785380D01*
X178267904Y-120785380D02*
X177696476Y-120785380D01*
X177982190Y-120785380D02*
X177982190Y-119785380D01*
X177886952Y-119928238D01*
X177791714Y-120023476D01*
X177696476Y-120071095D01*
X173101238Y-121435380D02*
X173339333Y-122435380D01*
X173529809Y-121721095D01*
X173720285Y-122435380D01*
X173958380Y-121435380D01*
X174244095Y-121435380D02*
X174910761Y-121435380D01*
X174244095Y-122435380D01*
X174910761Y-122435380D01*
X175244095Y-121530619D02*
X175291714Y-121483000D01*
X175386952Y-121435380D01*
X175625047Y-121435380D01*
X175720285Y-121483000D01*
X175767904Y-121530619D01*
X175815523Y-121625857D01*
X175815523Y-121721095D01*
X175767904Y-121863952D01*
X175196476Y-122435380D01*
X175815523Y-122435380D01*
X176910761Y-122530619D02*
X176815523Y-122483000D01*
X176720285Y-122387761D01*
X176577428Y-122244904D01*
X176482190Y-122197285D01*
X176386952Y-122197285D01*
X176434571Y-122435380D02*
X176339333Y-122387761D01*
X176244095Y-122292523D01*
X176196476Y-122102047D01*
X176196476Y-121768714D01*
X176244095Y-121578238D01*
X176339333Y-121483000D01*
X176434571Y-121435380D01*
X176625047Y-121435380D01*
X176720285Y-121483000D01*
X176815523Y-121578238D01*
X176863142Y-121768714D01*
X176863142Y-122102047D01*
X176815523Y-122292523D01*
X176720285Y-122387761D01*
X176625047Y-122435380D01*
X176434571Y-122435380D01*
X173648857Y-124085380D02*
X173315523Y-123609190D01*
X173077428Y-124085380D02*
X173077428Y-123085380D01*
X173458380Y-123085380D01*
X173553619Y-123133000D01*
X173601238Y-123180619D01*
X173648857Y-123275857D01*
X173648857Y-123418714D01*
X173601238Y-123513952D01*
X173553619Y-123561571D01*
X173458380Y-123609190D01*
X173077428Y-123609190D01*
X174458380Y-124037761D02*
X174363142Y-124085380D01*
X174172666Y-124085380D01*
X174077428Y-124037761D01*
X174029809Y-123942523D01*
X174029809Y-123561571D01*
X174077428Y-123466333D01*
X174172666Y-123418714D01*
X174363142Y-123418714D01*
X174458380Y-123466333D01*
X174506000Y-123561571D01*
X174506000Y-123656809D01*
X174029809Y-123752047D01*
X174839333Y-123418714D02*
X175077428Y-124085380D01*
X175315523Y-123418714D01*
X176982190Y-124085380D02*
X176410761Y-124085380D01*
X176696476Y-124085380D02*
X176696476Y-123085380D01*
X176601238Y-123228238D01*
X176506000Y-123323476D01*
X176410761Y-123371095D01*
X169688190Y-129182761D02*
X169831047Y-129230380D01*
X170069142Y-129230380D01*
X170164380Y-129182761D01*
X170212000Y-129135142D01*
X170259619Y-129039904D01*
X170259619Y-128944666D01*
X170212000Y-128849428D01*
X170164380Y-128801809D01*
X170069142Y-128754190D01*
X169878666Y-128706571D01*
X169783428Y-128658952D01*
X169735809Y-128611333D01*
X169688190Y-128516095D01*
X169688190Y-128420857D01*
X169735809Y-128325619D01*
X169783428Y-128278000D01*
X169878666Y-128230380D01*
X170116761Y-128230380D01*
X170259619Y-128278000D01*
X170688190Y-129230380D02*
X170688190Y-128230380D01*
X170926285Y-128230380D01*
X171069142Y-128278000D01*
X171164380Y-128373238D01*
X171212000Y-128468476D01*
X171259619Y-128658952D01*
X171259619Y-128801809D01*
X171212000Y-128992285D01*
X171164380Y-129087523D01*
X171069142Y-129182761D01*
X170926285Y-129230380D01*
X170688190Y-129230380D01*
X172926285Y-129230380D02*
X172450095Y-129230380D01*
X172450095Y-128230380D01*
X173259619Y-128706571D02*
X173592952Y-128706571D01*
X173735809Y-129230380D02*
X173259619Y-129230380D01*
X173259619Y-128230380D01*
X173735809Y-128230380D01*
X174164380Y-129230380D02*
X174164380Y-128230380D01*
X174402476Y-128230380D01*
X174545333Y-128278000D01*
X174640571Y-128373238D01*
X174688190Y-128468476D01*
X174735809Y-128658952D01*
X174735809Y-128801809D01*
X174688190Y-128992285D01*
X174640571Y-129087523D01*
X174545333Y-129182761D01*
X174402476Y-129230380D01*
X174164380Y-129230380D01*
X167971428Y-54452380D02*
X168638095Y-54452380D01*
X167971428Y-55452380D01*
X168638095Y-55452380D01*
X169161904Y-54880952D02*
X169066666Y-54833333D01*
X169019047Y-54785714D01*
X168971428Y-54690476D01*
X168971428Y-54642857D01*
X169019047Y-54547619D01*
X169066666Y-54500000D01*
X169161904Y-54452380D01*
X169352380Y-54452380D01*
X169447619Y-54500000D01*
X169495238Y-54547619D01*
X169542857Y-54642857D01*
X169542857Y-54690476D01*
X169495238Y-54785714D01*
X169447619Y-54833333D01*
X169352380Y-54880952D01*
X169161904Y-54880952D01*
X169066666Y-54928571D01*
X169019047Y-54976190D01*
X168971428Y-55071428D01*
X168971428Y-55261904D01*
X169019047Y-55357142D01*
X169066666Y-55404761D01*
X169161904Y-55452380D01*
X169352380Y-55452380D01*
X169447619Y-55404761D01*
X169495238Y-55357142D01*
X169542857Y-55261904D01*
X169542857Y-55071428D01*
X169495238Y-54976190D01*
X169447619Y-54928571D01*
X169352380Y-54880952D01*
X170161904Y-54452380D02*
X170257142Y-54452380D01*
X170352380Y-54500000D01*
X170400000Y-54547619D01*
X170447619Y-54642857D01*
X170495238Y-54833333D01*
X170495238Y-55071428D01*
X170447619Y-55261904D01*
X170400000Y-55357142D01*
X170352380Y-55404761D01*
X170257142Y-55452380D01*
X170161904Y-55452380D01*
X170066666Y-55404761D01*
X170019047Y-55357142D01*
X169971428Y-55261904D01*
X169923809Y-55071428D01*
X169923809Y-54833333D01*
X169971428Y-54642857D01*
X170019047Y-54547619D01*
X170066666Y-54500000D01*
X170161904Y-54452380D01*
X170923809Y-55071428D02*
X171685714Y-55071428D01*
X172733333Y-55357142D02*
X172685714Y-55404761D01*
X172542857Y-55452380D01*
X172447619Y-55452380D01*
X172304761Y-55404761D01*
X172209523Y-55309523D01*
X172161904Y-55214285D01*
X172114285Y-55023809D01*
X172114285Y-54880952D01*
X172161904Y-54690476D01*
X172209523Y-54595238D01*
X172304761Y-54500000D01*
X172447619Y-54452380D01*
X172542857Y-54452380D01*
X172685714Y-54500000D01*
X172733333Y-54547619D01*
X173161904Y-55452380D02*
X173161904Y-54452380D01*
X173542857Y-54452380D01*
X173638095Y-54500000D01*
X173685714Y-54547619D01*
X173733333Y-54642857D01*
X173733333Y-54785714D01*
X173685714Y-54880952D01*
X173638095Y-54928571D01*
X173542857Y-54976190D01*
X173161904Y-54976190D01*
X174161904Y-54452380D02*
X174161904Y-55261904D01*
X174209523Y-55357142D01*
X174257142Y-55404761D01*
X174352380Y-55452380D01*
X174542857Y-55452380D01*
X174638095Y-55404761D01*
X174685714Y-55357142D01*
X174733333Y-55261904D01*
X174733333Y-54452380D01*
X148590476Y-55452380D02*
X148590476Y-54452380D01*
X148971428Y-54452380D01*
X149066666Y-54500000D01*
X149114285Y-54547619D01*
X149161904Y-54642857D01*
X149161904Y-54785714D01*
X149114285Y-54880952D01*
X149066666Y-54928571D01*
X148971428Y-54976190D01*
X148590476Y-54976190D01*
X149590476Y-55452380D02*
X149590476Y-54452380D01*
X150638095Y-55357142D02*
X150590476Y-55404761D01*
X150447619Y-55452380D01*
X150352380Y-55452380D01*
X150209523Y-55404761D01*
X150114285Y-55309523D01*
X150066666Y-55214285D01*
X150019047Y-55023809D01*
X150019047Y-54880952D01*
X150066666Y-54690476D01*
X150114285Y-54595238D01*
X150209523Y-54500000D01*
X150352380Y-54452380D01*
X150447619Y-54452380D01*
X150590476Y-54500000D01*
X150638095Y-54547619D01*
X151590476Y-55452380D02*
X151019047Y-55452380D01*
X151304761Y-55452380D02*
X151304761Y-54452380D01*
X151209523Y-54595238D01*
X151114285Y-54690476D01*
X151019047Y-54738095D01*
X152161904Y-54880952D02*
X152066666Y-54833333D01*
X152019047Y-54785714D01*
X151971428Y-54690476D01*
X151971428Y-54642857D01*
X152019047Y-54547619D01*
X152066666Y-54500000D01*
X152161904Y-54452380D01*
X152352380Y-54452380D01*
X152447619Y-54500000D01*
X152495238Y-54547619D01*
X152542857Y-54642857D01*
X152542857Y-54690476D01*
X152495238Y-54785714D01*
X152447619Y-54833333D01*
X152352380Y-54880952D01*
X152161904Y-54880952D01*
X152066666Y-54928571D01*
X152019047Y-54976190D01*
X151971428Y-55071428D01*
X151971428Y-55261904D01*
X152019047Y-55357142D01*
X152066666Y-55404761D01*
X152161904Y-55452380D01*
X152352380Y-55452380D01*
X152447619Y-55404761D01*
X152495238Y-55357142D01*
X152542857Y-55261904D01*
X152542857Y-55071428D01*
X152495238Y-54976190D01*
X152447619Y-54928571D01*
X152352380Y-54880952D01*
X153304761Y-54928571D02*
X152971428Y-54928571D01*
X152971428Y-55452380D02*
X152971428Y-54452380D01*
X153447619Y-54452380D01*
X154257142Y-54785714D02*
X154257142Y-55452380D01*
X154019047Y-54404761D02*
X153780952Y-55119047D01*
X154400000Y-55119047D01*
X154685714Y-54452380D02*
X155352380Y-54452380D01*
X154923809Y-55452380D01*
X156400000Y-55547619D02*
X156304761Y-55500000D01*
X156209523Y-55404761D01*
X156066666Y-55261904D01*
X155971428Y-55214285D01*
X155876190Y-55214285D01*
X155923809Y-55452380D02*
X155828571Y-55404761D01*
X155733333Y-55309523D01*
X155685714Y-55119047D01*
X155685714Y-54785714D01*
X155733333Y-54595238D01*
X155828571Y-54500000D01*
X155923809Y-54452380D01*
X156114285Y-54452380D01*
X156209523Y-54500000D01*
X156304761Y-54595238D01*
X156352380Y-54785714D01*
X156352380Y-55119047D01*
X156304761Y-55309523D01*
X156209523Y-55404761D01*
X156114285Y-55452380D01*
X155923809Y-55452380D01*
X156923809Y-54880952D02*
X156828571Y-54833333D01*
X156780952Y-54785714D01*
X156733333Y-54690476D01*
X156733333Y-54642857D01*
X156780952Y-54547619D01*
X156828571Y-54500000D01*
X156923809Y-54452380D01*
X157114285Y-54452380D01*
X157209523Y-54500000D01*
X157257142Y-54547619D01*
X157304761Y-54642857D01*
X157304761Y-54690476D01*
X157257142Y-54785714D01*
X157209523Y-54833333D01*
X157114285Y-54880952D01*
X156923809Y-54880952D01*
X156828571Y-54928571D01*
X156780952Y-54976190D01*
X156733333Y-55071428D01*
X156733333Y-55261904D01*
X156780952Y-55357142D01*
X156828571Y-55404761D01*
X156923809Y-55452380D01*
X157114285Y-55452380D01*
X157209523Y-55404761D01*
X157257142Y-55357142D01*
X157304761Y-55261904D01*
X157304761Y-55071428D01*
X157257142Y-54976190D01*
X157209523Y-54928571D01*
X157114285Y-54880952D01*
X158161904Y-54785714D02*
X158161904Y-55452380D01*
X157923809Y-54404761D02*
X157685714Y-55119047D01*
X158304761Y-55119047D01*
X171133809Y-112702380D02*
X171371904Y-113702380D01*
X171562380Y-112988095D01*
X171752857Y-113702380D01*
X171990952Y-112702380D01*
X172324285Y-113416666D02*
X172800476Y-113416666D01*
X172229047Y-113702380D02*
X172562380Y-112702380D01*
X172895714Y-113702380D01*
X173229047Y-113702380D02*
X173229047Y-112702380D01*
X173562380Y-112702380D02*
X174133809Y-112702380D01*
X173848095Y-113702380D02*
X173848095Y-112702380D01*
X174419523Y-113035714D02*
X175133809Y-113035714D01*
X174705238Y-112607142D02*
X174419523Y-113892857D01*
X175038571Y-113464285D02*
X174324285Y-113464285D01*
X174752857Y-113892857D02*
X175038571Y-112607142D01*
X165481000Y-117792095D02*
X165528619Y-117696857D01*
X165528619Y-117554000D01*
X165481000Y-117411142D01*
X165385761Y-117315904D01*
X165290523Y-117268285D01*
X165100047Y-117220666D01*
X164957190Y-117220666D01*
X164766714Y-117268285D01*
X164671476Y-117315904D01*
X164576238Y-117411142D01*
X164528619Y-117554000D01*
X164528619Y-117649238D01*
X164576238Y-117792095D01*
X164623857Y-117839714D01*
X164957190Y-117839714D01*
X164957190Y-117649238D01*
X164528619Y-118268285D02*
X165528619Y-118268285D01*
X164528619Y-118839714D01*
X165528619Y-118839714D01*
X164528619Y-119315904D02*
X165528619Y-119315904D01*
X165528619Y-119554000D01*
X165481000Y-119696857D01*
X165385761Y-119792095D01*
X165290523Y-119839714D01*
X165100047Y-119887333D01*
X164957190Y-119887333D01*
X164766714Y-119839714D01*
X164671476Y-119792095D01*
X164576238Y-119696857D01*
X164528619Y-119554000D01*
X164528619Y-119315904D01*
X162428571Y-117214285D02*
X162428571Y-117976190D01*
X162047619Y-117595238D02*
X162809523Y-117595238D01*
X163047619Y-118928571D02*
X163047619Y-118452380D01*
X162571428Y-118404761D01*
X162619047Y-118452380D01*
X162666666Y-118547619D01*
X162666666Y-118785714D01*
X162619047Y-118880952D01*
X162571428Y-118928571D01*
X162476190Y-118976190D01*
X162238095Y-118976190D01*
X162142857Y-118928571D01*
X162095238Y-118880952D01*
X162047619Y-118785714D01*
X162047619Y-118547619D01*
X162095238Y-118452380D01*
X162142857Y-118404761D01*
X163047619Y-119261904D02*
X162047619Y-119595238D01*
X163047619Y-119928571D01*
X154395238Y-117023809D02*
X154347619Y-117166666D01*
X154347619Y-117404761D01*
X154395238Y-117500000D01*
X154442857Y-117547619D01*
X154538095Y-117595238D01*
X154633333Y-117595238D01*
X154728571Y-117547619D01*
X154776190Y-117500000D01*
X154823809Y-117404761D01*
X154871428Y-117214285D01*
X154919047Y-117119047D01*
X154966666Y-117071428D01*
X155061904Y-117023809D01*
X155157142Y-117023809D01*
X155252380Y-117071428D01*
X155300000Y-117119047D01*
X155347619Y-117214285D01*
X155347619Y-117452380D01*
X155300000Y-117595238D01*
X154347619Y-118023809D02*
X155347619Y-118023809D01*
X155347619Y-118261904D01*
X155300000Y-118404761D01*
X155204761Y-118500000D01*
X155109523Y-118547619D01*
X154919047Y-118595238D01*
X154776190Y-118595238D01*
X154585714Y-118547619D01*
X154490476Y-118500000D01*
X154395238Y-118404761D01*
X154347619Y-118261904D01*
X154347619Y-118023809D01*
X154252380Y-118785714D02*
X154252380Y-119547619D01*
X154347619Y-119785714D02*
X155347619Y-119785714D01*
X154633333Y-120119047D01*
X155347619Y-120452380D01*
X154347619Y-120452380D01*
X154347619Y-120928571D02*
X155347619Y-120928571D01*
X154395238Y-121357142D02*
X154347619Y-121500000D01*
X154347619Y-121738095D01*
X154395238Y-121833333D01*
X154442857Y-121880952D01*
X154538095Y-121928571D01*
X154633333Y-121928571D01*
X154728571Y-121880952D01*
X154776190Y-121833333D01*
X154823809Y-121738095D01*
X154871428Y-121547619D01*
X154919047Y-121452380D01*
X154966666Y-121404761D01*
X155061904Y-121357142D01*
X155157142Y-121357142D01*
X155252380Y-121404761D01*
X155300000Y-121452380D01*
X155347619Y-121547619D01*
X155347619Y-121785714D01*
X155300000Y-121928571D01*
X155347619Y-122547619D02*
X155347619Y-122738095D01*
X155300000Y-122833333D01*
X155204761Y-122928571D01*
X155014285Y-122976190D01*
X154680952Y-122976190D01*
X154490476Y-122928571D01*
X154395238Y-122833333D01*
X154347619Y-122738095D01*
X154347619Y-122547619D01*
X154395238Y-122452380D01*
X154490476Y-122357142D01*
X154680952Y-122309523D01*
X155014285Y-122309523D01*
X155204761Y-122357142D01*
X155300000Y-122452380D01*
X155347619Y-122547619D01*
X156995238Y-117023809D02*
X156947619Y-117166666D01*
X156947619Y-117404761D01*
X156995238Y-117500000D01*
X157042857Y-117547619D01*
X157138095Y-117595238D01*
X157233333Y-117595238D01*
X157328571Y-117547619D01*
X157376190Y-117500000D01*
X157423809Y-117404761D01*
X157471428Y-117214285D01*
X157519047Y-117119047D01*
X157566666Y-117071428D01*
X157661904Y-117023809D01*
X157757142Y-117023809D01*
X157852380Y-117071428D01*
X157900000Y-117119047D01*
X157947619Y-117214285D01*
X157947619Y-117452380D01*
X157900000Y-117595238D01*
X156947619Y-118023809D02*
X157947619Y-118023809D01*
X157947619Y-118261904D01*
X157900000Y-118404761D01*
X157804761Y-118500000D01*
X157709523Y-118547619D01*
X157519047Y-118595238D01*
X157376190Y-118595238D01*
X157185714Y-118547619D01*
X157090476Y-118500000D01*
X156995238Y-118404761D01*
X156947619Y-118261904D01*
X156947619Y-118023809D01*
X156852380Y-118785714D02*
X156852380Y-119547619D01*
X156947619Y-119785714D02*
X157947619Y-119785714D01*
X157233333Y-120119047D01*
X157947619Y-120452380D01*
X156947619Y-120452380D01*
X157947619Y-121119047D02*
X157947619Y-121309523D01*
X157900000Y-121404761D01*
X157804761Y-121500000D01*
X157614285Y-121547619D01*
X157280952Y-121547619D01*
X157090476Y-121500000D01*
X156995238Y-121404761D01*
X156947619Y-121309523D01*
X156947619Y-121119047D01*
X156995238Y-121023809D01*
X157090476Y-120928571D01*
X157280952Y-120880952D01*
X157614285Y-120880952D01*
X157804761Y-120928571D01*
X157900000Y-121023809D01*
X157947619Y-121119047D01*
X156995238Y-121928571D02*
X156947619Y-122071428D01*
X156947619Y-122309523D01*
X156995238Y-122404761D01*
X157042857Y-122452380D01*
X157138095Y-122500000D01*
X157233333Y-122500000D01*
X157328571Y-122452380D01*
X157376190Y-122404761D01*
X157423809Y-122309523D01*
X157471428Y-122119047D01*
X157519047Y-122023809D01*
X157566666Y-121976190D01*
X157661904Y-121928571D01*
X157757142Y-121928571D01*
X157852380Y-121976190D01*
X157900000Y-122023809D01*
X157947619Y-122119047D01*
X157947619Y-122357142D01*
X157900000Y-122500000D01*
X156947619Y-122928571D02*
X157947619Y-122928571D01*
X151795238Y-117157142D02*
X151747619Y-117300000D01*
X151747619Y-117538095D01*
X151795238Y-117633333D01*
X151842857Y-117680952D01*
X151938095Y-117728571D01*
X152033333Y-117728571D01*
X152128571Y-117680952D01*
X152176190Y-117633333D01*
X152223809Y-117538095D01*
X152271428Y-117347619D01*
X152319047Y-117252380D01*
X152366666Y-117204761D01*
X152461904Y-117157142D01*
X152557142Y-117157142D01*
X152652380Y-117204761D01*
X152700000Y-117252380D01*
X152747619Y-117347619D01*
X152747619Y-117585714D01*
X152700000Y-117728571D01*
X151747619Y-118157142D02*
X152747619Y-118157142D01*
X152747619Y-118395238D01*
X152700000Y-118538095D01*
X152604761Y-118633333D01*
X152509523Y-118680952D01*
X152319047Y-118728571D01*
X152176190Y-118728571D01*
X151985714Y-118680952D01*
X151890476Y-118633333D01*
X151795238Y-118538095D01*
X151747619Y-118395238D01*
X151747619Y-118157142D01*
X151652380Y-118919047D02*
X151652380Y-119680952D01*
X151795238Y-119871428D02*
X151747619Y-120014285D01*
X151747619Y-120252380D01*
X151795238Y-120347619D01*
X151842857Y-120395238D01*
X151938095Y-120442857D01*
X152033333Y-120442857D01*
X152128571Y-120395238D01*
X152176190Y-120347619D01*
X152223809Y-120252380D01*
X152271428Y-120061904D01*
X152319047Y-119966666D01*
X152366666Y-119919047D01*
X152461904Y-119871428D01*
X152557142Y-119871428D01*
X152652380Y-119919047D01*
X152700000Y-119966666D01*
X152747619Y-120061904D01*
X152747619Y-120300000D01*
X152700000Y-120442857D01*
X151842857Y-121442857D02*
X151795238Y-121395238D01*
X151747619Y-121252380D01*
X151747619Y-121157142D01*
X151795238Y-121014285D01*
X151890476Y-120919047D01*
X151985714Y-120871428D01*
X152176190Y-120823809D01*
X152319047Y-120823809D01*
X152509523Y-120871428D01*
X152604761Y-120919047D01*
X152700000Y-121014285D01*
X152747619Y-121157142D01*
X152747619Y-121252380D01*
X152700000Y-121395238D01*
X152652380Y-121442857D01*
X151747619Y-121871428D02*
X152747619Y-121871428D01*
X151747619Y-122442857D02*
X152319047Y-122014285D01*
X152747619Y-122442857D02*
X152176190Y-121871428D01*
X149395238Y-117157142D02*
X149347619Y-117300000D01*
X149347619Y-117538095D01*
X149395238Y-117633333D01*
X149442857Y-117680952D01*
X149538095Y-117728571D01*
X149633333Y-117728571D01*
X149728571Y-117680952D01*
X149776190Y-117633333D01*
X149823809Y-117538095D01*
X149871428Y-117347619D01*
X149919047Y-117252380D01*
X149966666Y-117204761D01*
X150061904Y-117157142D01*
X150157142Y-117157142D01*
X150252380Y-117204761D01*
X150300000Y-117252380D01*
X150347619Y-117347619D01*
X150347619Y-117585714D01*
X150300000Y-117728571D01*
X149347619Y-118157142D02*
X150347619Y-118157142D01*
X150347619Y-118395238D01*
X150300000Y-118538095D01*
X150204761Y-118633333D01*
X150109523Y-118680952D01*
X149919047Y-118728571D01*
X149776190Y-118728571D01*
X149585714Y-118680952D01*
X149490476Y-118633333D01*
X149395238Y-118538095D01*
X149347619Y-118395238D01*
X149347619Y-118157142D01*
X149252380Y-118919047D02*
X149252380Y-119680952D01*
X149442857Y-120490476D02*
X149395238Y-120442857D01*
X149347619Y-120300000D01*
X149347619Y-120204761D01*
X149395238Y-120061904D01*
X149490476Y-119966666D01*
X149585714Y-119919047D01*
X149776190Y-119871428D01*
X149919047Y-119871428D01*
X150109523Y-119919047D01*
X150204761Y-119966666D01*
X150300000Y-120061904D01*
X150347619Y-120204761D01*
X150347619Y-120300000D01*
X150300000Y-120442857D01*
X150252380Y-120490476D01*
X149395238Y-120871428D02*
X149347619Y-121014285D01*
X149347619Y-121252380D01*
X149395238Y-121347619D01*
X149442857Y-121395238D01*
X149538095Y-121442857D01*
X149633333Y-121442857D01*
X149728571Y-121395238D01*
X149776190Y-121347619D01*
X149823809Y-121252380D01*
X149871428Y-121061904D01*
X149919047Y-120966666D01*
X149966666Y-120919047D01*
X150061904Y-120871428D01*
X150157142Y-120871428D01*
X150252380Y-120919047D01*
X150300000Y-120966666D01*
X150347619Y-121061904D01*
X150347619Y-121300000D01*
X150300000Y-121442857D01*
X150014285Y-121823809D02*
X150014285Y-122538095D01*
X150442857Y-122109523D02*
X149157142Y-121823809D01*
X149585714Y-122442857D02*
X149585714Y-121728571D01*
X149157142Y-122157142D02*
X150442857Y-122442857D01*
X144038095Y-112100000D02*
X143942857Y-112052380D01*
X143800000Y-112052380D01*
X143657142Y-112100000D01*
X143561904Y-112195238D01*
X143514285Y-112290476D01*
X143466666Y-112480952D01*
X143466666Y-112623809D01*
X143514285Y-112814285D01*
X143561904Y-112909523D01*
X143657142Y-113004761D01*
X143800000Y-113052380D01*
X143895238Y-113052380D01*
X144038095Y-113004761D01*
X144085714Y-112957142D01*
X144085714Y-112623809D01*
X143895238Y-112623809D01*
X144514285Y-113052380D02*
X144514285Y-112052380D01*
X145085714Y-113052380D01*
X145085714Y-112052380D01*
X145561904Y-113052380D02*
X145561904Y-112052380D01*
X145800000Y-112052380D01*
X145942857Y-112100000D01*
X146038095Y-112195238D01*
X146085714Y-112290476D01*
X146133333Y-112480952D01*
X146133333Y-112623809D01*
X146085714Y-112814285D01*
X146038095Y-112909523D01*
X145942857Y-113004761D01*
X145800000Y-113052380D01*
X145561904Y-113052380D01*
X154289095Y-112095380D02*
X154860523Y-112095380D01*
X154574809Y-113095380D02*
X154574809Y-112095380D01*
X155098619Y-112095380D02*
X155765285Y-113095380D01*
X155765285Y-112095380D02*
X155098619Y-113095380D01*
X152344333Y-113095380D02*
X152011000Y-112619190D01*
X151772904Y-113095380D02*
X151772904Y-112095380D01*
X152153857Y-112095380D01*
X152249095Y-112143000D01*
X152296714Y-112190619D01*
X152344333Y-112285857D01*
X152344333Y-112428714D01*
X152296714Y-112523952D01*
X152249095Y-112571571D01*
X152153857Y-112619190D01*
X151772904Y-112619190D01*
X152677666Y-112095380D02*
X153344333Y-113095380D01*
X153344333Y-112095380D02*
X152677666Y-113095380D01*
X180366523Y-106314380D02*
X180033190Y-105838190D01*
X179795095Y-106314380D02*
X179795095Y-105314380D01*
X180176047Y-105314380D01*
X180271285Y-105362000D01*
X180318904Y-105409619D01*
X180366523Y-105504857D01*
X180366523Y-105647714D01*
X180318904Y-105742952D01*
X180271285Y-105790571D01*
X180176047Y-105838190D01*
X179795095Y-105838190D01*
X180795095Y-106314380D02*
X180795095Y-105314380D01*
X181033190Y-105314380D01*
X181176047Y-105362000D01*
X181271285Y-105457238D01*
X181318904Y-105552476D01*
X181366523Y-105742952D01*
X181366523Y-105885809D01*
X181318904Y-106076285D01*
X181271285Y-106171523D01*
X181176047Y-106266761D01*
X181033190Y-106314380D01*
X180795095Y-106314380D01*
X181747476Y-105647714D02*
X182461761Y-105647714D01*
X182033190Y-105219142D02*
X181747476Y-106504857D01*
X182366523Y-106076285D02*
X181652238Y-106076285D01*
X182080809Y-106504857D02*
X182366523Y-105219142D01*
X180088095Y-84950000D02*
X179992857Y-84902380D01*
X179850000Y-84902380D01*
X179707142Y-84950000D01*
X179611904Y-85045238D01*
X179564285Y-85140476D01*
X179516666Y-85330952D01*
X179516666Y-85473809D01*
X179564285Y-85664285D01*
X179611904Y-85759523D01*
X179707142Y-85854761D01*
X179850000Y-85902380D01*
X179945238Y-85902380D01*
X180088095Y-85854761D01*
X180135714Y-85807142D01*
X180135714Y-85473809D01*
X179945238Y-85473809D01*
X180564285Y-85902380D02*
X180564285Y-84902380D01*
X181135714Y-85902380D01*
X181135714Y-84902380D01*
X181611904Y-85902380D02*
X181611904Y-84902380D01*
X181850000Y-84902380D01*
X181992857Y-84950000D01*
X182088095Y-85045238D01*
X182135714Y-85140476D01*
X182183333Y-85330952D01*
X182183333Y-85473809D01*
X182135714Y-85664285D01*
X182088095Y-85759523D01*
X181992857Y-85854761D01*
X181850000Y-85902380D01*
X181611904Y-85902380D01*
X179785714Y-83116666D02*
X180261904Y-83116666D01*
X179690476Y-83402380D02*
X180023809Y-82402380D01*
X180357142Y-83402380D01*
X180880952Y-82402380D02*
X180976190Y-82402380D01*
X181071428Y-82450000D01*
X181119047Y-82497619D01*
X181166666Y-82592857D01*
X181214285Y-82783333D01*
X181214285Y-83021428D01*
X181166666Y-83211904D01*
X181119047Y-83307142D01*
X181071428Y-83354761D01*
X180976190Y-83402380D01*
X180880952Y-83402380D01*
X180785714Y-83354761D01*
X180738095Y-83307142D01*
X180690476Y-83211904D01*
X180642857Y-83021428D01*
X180642857Y-82783333D01*
X180690476Y-82592857D01*
X180738095Y-82497619D01*
X180785714Y-82450000D01*
X180880952Y-82402380D01*
X179835714Y-80616666D02*
X180311904Y-80616666D01*
X179740476Y-80902380D02*
X180073809Y-79902380D01*
X180407142Y-80902380D01*
X181264285Y-80902380D02*
X180692857Y-80902380D01*
X180978571Y-80902380D02*
X180978571Y-79902380D01*
X180883333Y-80045238D01*
X180788095Y-80140476D01*
X180692857Y-80188095D01*
X179835714Y-78166666D02*
X180311904Y-78166666D01*
X179740476Y-78452380D02*
X180073809Y-77452380D01*
X180407142Y-78452380D01*
X180692857Y-77547619D02*
X180740476Y-77500000D01*
X180835714Y-77452380D01*
X181073809Y-77452380D01*
X181169047Y-77500000D01*
X181216666Y-77547619D01*
X181264285Y-77642857D01*
X181264285Y-77738095D01*
X181216666Y-77880952D01*
X180645238Y-78452380D01*
X181264285Y-78452380D01*
X179902380Y-93402380D02*
X179569047Y-92926190D01*
X179330952Y-93402380D02*
X179330952Y-92402380D01*
X179711904Y-92402380D01*
X179807142Y-92450000D01*
X179854761Y-92497619D01*
X179902380Y-92592857D01*
X179902380Y-92735714D01*
X179854761Y-92830952D01*
X179807142Y-92878571D01*
X179711904Y-92926190D01*
X179330952Y-92926190D01*
X180283333Y-93354761D02*
X180426190Y-93402380D01*
X180664285Y-93402380D01*
X180759523Y-93354761D01*
X180807142Y-93307142D01*
X180854761Y-93211904D01*
X180854761Y-93116666D01*
X180807142Y-93021428D01*
X180759523Y-92973809D01*
X180664285Y-92926190D01*
X180473809Y-92878571D01*
X180378571Y-92830952D01*
X180330952Y-92783333D01*
X180283333Y-92688095D01*
X180283333Y-92592857D01*
X180330952Y-92497619D01*
X180378571Y-92450000D01*
X180473809Y-92402380D01*
X180711904Y-92402380D01*
X180854761Y-92450000D01*
X181140476Y-92402380D02*
X181711904Y-92402380D01*
X181426190Y-93402380D02*
X181426190Y-92402380D01*
X181997619Y-92735714D02*
X182711904Y-92735714D01*
X182283333Y-92307142D02*
X181997619Y-93592857D01*
X182616666Y-93164285D02*
X181902380Y-93164285D01*
X182330952Y-93592857D02*
X182616666Y-92307142D01*
X179323809Y-97552380D02*
X179561904Y-98552380D01*
X179752380Y-97838095D01*
X179942857Y-98552380D01*
X180180952Y-97552380D01*
X180514285Y-98266666D02*
X180990476Y-98266666D01*
X180419047Y-98552380D02*
X180752380Y-97552380D01*
X181085714Y-98552380D01*
X181419047Y-98552380D02*
X181419047Y-97552380D01*
X181752380Y-97552380D02*
X182323809Y-97552380D01*
X182038095Y-98552380D02*
X182038095Y-97552380D01*
X179628428Y-102774380D02*
X179866523Y-103774380D01*
X180057000Y-103060095D01*
X180247476Y-103774380D01*
X180485571Y-102774380D01*
X181437952Y-103774380D02*
X181104619Y-103298190D01*
X180866523Y-103774380D02*
X180866523Y-102774380D01*
X181247476Y-102774380D01*
X181342714Y-102822000D01*
X181390333Y-102869619D01*
X181437952Y-102964857D01*
X181437952Y-103107714D01*
X181390333Y-103202952D01*
X181342714Y-103250571D01*
X181247476Y-103298190D01*
X180866523Y-103298190D01*
X181818904Y-103107714D02*
X182533190Y-103107714D01*
X182104619Y-102679142D02*
X181818904Y-103964857D01*
X182437952Y-103536285D02*
X181723666Y-103536285D01*
X182152238Y-103964857D02*
X182437952Y-102679142D01*
X169449904Y-53030380D02*
X169116571Y-52554190D01*
X168878476Y-53030380D02*
X168878476Y-52030380D01*
X169259428Y-52030380D01*
X169354666Y-52078000D01*
X169402285Y-52125619D01*
X169449904Y-52220857D01*
X169449904Y-52363714D01*
X169402285Y-52458952D01*
X169354666Y-52506571D01*
X169259428Y-52554190D01*
X168878476Y-52554190D01*
X170259428Y-52982761D02*
X170164190Y-53030380D01*
X169973714Y-53030380D01*
X169878476Y-52982761D01*
X169830857Y-52887523D01*
X169830857Y-52506571D01*
X169878476Y-52411333D01*
X169973714Y-52363714D01*
X170164190Y-52363714D01*
X170259428Y-52411333D01*
X170307047Y-52506571D01*
X170307047Y-52601809D01*
X169830857Y-52697047D01*
X170688000Y-52982761D02*
X170783238Y-53030380D01*
X170973714Y-53030380D01*
X171068952Y-52982761D01*
X171116571Y-52887523D01*
X171116571Y-52839904D01*
X171068952Y-52744666D01*
X170973714Y-52697047D01*
X170830857Y-52697047D01*
X170735619Y-52649428D01*
X170688000Y-52554190D01*
X170688000Y-52506571D01*
X170735619Y-52411333D01*
X170830857Y-52363714D01*
X170973714Y-52363714D01*
X171068952Y-52411333D01*
X171926095Y-52982761D02*
X171830857Y-53030380D01*
X171640380Y-53030380D01*
X171545142Y-52982761D01*
X171497523Y-52887523D01*
X171497523Y-52506571D01*
X171545142Y-52411333D01*
X171640380Y-52363714D01*
X171830857Y-52363714D01*
X171926095Y-52411333D01*
X171973714Y-52506571D01*
X171973714Y-52601809D01*
X171497523Y-52697047D01*
X172259428Y-52363714D02*
X172640380Y-52363714D01*
X172402285Y-52030380D02*
X172402285Y-52887523D01*
X172449904Y-52982761D01*
X172545142Y-53030380D01*
X172640380Y-53030380D01*
X144551047Y-128055714D02*
X144551047Y-128865238D01*
X144503428Y-128960476D01*
X144455809Y-129008095D01*
X144360571Y-129055714D01*
X144217714Y-129055714D01*
X144122476Y-129008095D01*
X144551047Y-128674761D02*
X144455809Y-128722380D01*
X144265333Y-128722380D01*
X144170095Y-128674761D01*
X144122476Y-128627142D01*
X144074857Y-128531904D01*
X144074857Y-128246190D01*
X144122476Y-128150952D01*
X144170095Y-128103333D01*
X144265333Y-128055714D01*
X144455809Y-128055714D01*
X144551047Y-128103333D01*
X145027238Y-128722380D02*
X145027238Y-128055714D01*
X145027238Y-127722380D02*
X144979619Y-127770000D01*
X145027238Y-127817619D01*
X145074857Y-127770000D01*
X145027238Y-127722380D01*
X145027238Y-127817619D01*
X145360571Y-128055714D02*
X145741523Y-128055714D01*
X145503428Y-127722380D02*
X145503428Y-128579523D01*
X145551047Y-128674761D01*
X145646285Y-128722380D01*
X145741523Y-128722380D01*
X146074857Y-128722380D02*
X146074857Y-127722380D01*
X146503428Y-128722380D02*
X146503428Y-128198571D01*
X146455809Y-128103333D01*
X146360571Y-128055714D01*
X146217714Y-128055714D01*
X146122476Y-128103333D01*
X146074857Y-128150952D01*
X147408190Y-128055714D02*
X147408190Y-128722380D01*
X146979619Y-128055714D02*
X146979619Y-128579523D01*
X147027238Y-128674761D01*
X147122476Y-128722380D01*
X147265333Y-128722380D01*
X147360571Y-128674761D01*
X147408190Y-128627142D01*
X147884380Y-128722380D02*
X147884380Y-127722380D01*
X147884380Y-128103333D02*
X147979619Y-128055714D01*
X148170095Y-128055714D01*
X148265333Y-128103333D01*
X148312952Y-128150952D01*
X148360571Y-128246190D01*
X148360571Y-128531904D01*
X148312952Y-128627142D01*
X148265333Y-128674761D01*
X148170095Y-128722380D01*
X147979619Y-128722380D01*
X147884380Y-128674761D01*
X148789142Y-128627142D02*
X148836761Y-128674761D01*
X148789142Y-128722380D01*
X148741523Y-128674761D01*
X148789142Y-128627142D01*
X148789142Y-128722380D01*
X149693904Y-128674761D02*
X149598666Y-128722380D01*
X149408190Y-128722380D01*
X149312952Y-128674761D01*
X149265333Y-128627142D01*
X149217714Y-128531904D01*
X149217714Y-128246190D01*
X149265333Y-128150952D01*
X149312952Y-128103333D01*
X149408190Y-128055714D01*
X149598666Y-128055714D01*
X149693904Y-128103333D01*
X150265333Y-128722380D02*
X150170095Y-128674761D01*
X150122476Y-128627142D01*
X150074857Y-128531904D01*
X150074857Y-128246190D01*
X150122476Y-128150952D01*
X150170095Y-128103333D01*
X150265333Y-128055714D01*
X150408190Y-128055714D01*
X150503428Y-128103333D01*
X150551047Y-128150952D01*
X150598666Y-128246190D01*
X150598666Y-128531904D01*
X150551047Y-128627142D01*
X150503428Y-128674761D01*
X150408190Y-128722380D01*
X150265333Y-128722380D01*
X151027238Y-128722380D02*
X151027238Y-128055714D01*
X151027238Y-128150952D02*
X151074857Y-128103333D01*
X151170095Y-128055714D01*
X151312952Y-128055714D01*
X151408190Y-128103333D01*
X151455809Y-128198571D01*
X151455809Y-128722380D01*
X151455809Y-128198571D02*
X151503428Y-128103333D01*
X151598666Y-128055714D01*
X151741523Y-128055714D01*
X151836761Y-128103333D01*
X151884380Y-128198571D01*
X151884380Y-128722380D01*
X153074857Y-127674761D02*
X152217714Y-128960476D01*
X153408190Y-128722380D02*
X153408190Y-127722380D01*
X153836761Y-128722380D02*
X153836761Y-128198571D01*
X153789142Y-128103333D01*
X153693904Y-128055714D01*
X153551047Y-128055714D01*
X153455809Y-128103333D01*
X153408190Y-128150952D01*
X154312952Y-128722380D02*
X154312952Y-127722380D01*
X154741523Y-128722380D02*
X154741523Y-128198571D01*
X154693904Y-128103333D01*
X154598666Y-128055714D01*
X154455809Y-128055714D01*
X154360571Y-128103333D01*
X154312952Y-128150952D01*
X155646285Y-128722380D02*
X155646285Y-128198571D01*
X155598666Y-128103333D01*
X155503428Y-128055714D01*
X155312952Y-128055714D01*
X155217714Y-128103333D01*
X155646285Y-128674761D02*
X155551047Y-128722380D01*
X155312952Y-128722380D01*
X155217714Y-128674761D01*
X155170095Y-128579523D01*
X155170095Y-128484285D01*
X155217714Y-128389047D01*
X155312952Y-128341428D01*
X155551047Y-128341428D01*
X155646285Y-128293809D01*
X156122476Y-128722380D02*
X156122476Y-128055714D01*
X156122476Y-128246190D02*
X156170095Y-128150952D01*
X156217714Y-128103333D01*
X156312952Y-128055714D01*
X156408190Y-128055714D01*
X156598666Y-128055714D02*
X156979619Y-128055714D01*
X156741523Y-127722380D02*
X156741523Y-128579523D01*
X156789142Y-128674761D01*
X156884380Y-128722380D01*
X156979619Y-128722380D01*
X157693904Y-128674761D02*
X157598666Y-128722380D01*
X157408190Y-128722380D01*
X157312952Y-128674761D01*
X157265333Y-128579523D01*
X157265333Y-128198571D01*
X157312952Y-128103333D01*
X157408190Y-128055714D01*
X157598666Y-128055714D01*
X157693904Y-128103333D01*
X157741523Y-128198571D01*
X157741523Y-128293809D01*
X157265333Y-128389047D01*
X158884380Y-127674761D02*
X158027238Y-128960476D01*
X159122476Y-128055714D02*
X159646285Y-128055714D01*
X159122476Y-128722380D01*
X159646285Y-128722380D01*
X160170095Y-128150952D02*
X160074857Y-128103333D01*
X160027238Y-128055714D01*
X159979619Y-127960476D01*
X159979619Y-127912857D01*
X160027238Y-127817619D01*
X160074857Y-127770000D01*
X160170095Y-127722380D01*
X160360571Y-127722380D01*
X160455809Y-127770000D01*
X160503428Y-127817619D01*
X160551047Y-127912857D01*
X160551047Y-127960476D01*
X160503428Y-128055714D01*
X160455809Y-128103333D01*
X160360571Y-128150952D01*
X160170095Y-128150952D01*
X160074857Y-128198571D01*
X160027238Y-128246190D01*
X159979619Y-128341428D01*
X159979619Y-128531904D01*
X160027238Y-128627142D01*
X160074857Y-128674761D01*
X160170095Y-128722380D01*
X160360571Y-128722380D01*
X160455809Y-128674761D01*
X160503428Y-128627142D01*
X160551047Y-128531904D01*
X160551047Y-128341428D01*
X160503428Y-128246190D01*
X160455809Y-128198571D01*
X160360571Y-128150952D01*
X161170095Y-127722380D02*
X161265333Y-127722380D01*
X161360571Y-127770000D01*
X161408190Y-127817619D01*
X161455809Y-127912857D01*
X161503428Y-128103333D01*
X161503428Y-128341428D01*
X161455809Y-128531904D01*
X161408190Y-128627142D01*
X161360571Y-128674761D01*
X161265333Y-128722380D01*
X161170095Y-128722380D01*
X161074857Y-128674761D01*
X161027238Y-128627142D01*
X160979619Y-128531904D01*
X160932000Y-128341428D01*
X160932000Y-128103333D01*
X160979619Y-127912857D01*
X161027238Y-127817619D01*
X161074857Y-127770000D01*
X161170095Y-127722380D01*
X161693904Y-128817619D02*
X162455809Y-128817619D01*
X162646285Y-128674761D02*
X162741523Y-128722380D01*
X162932000Y-128722380D01*
X163027238Y-128674761D01*
X163074857Y-128579523D01*
X163074857Y-128531904D01*
X163027238Y-128436666D01*
X162932000Y-128389047D01*
X162789142Y-128389047D01*
X162693904Y-128341428D01*
X162646285Y-128246190D01*
X162646285Y-128198571D01*
X162693904Y-128103333D01*
X162789142Y-128055714D01*
X162932000Y-128055714D01*
X163027238Y-128103333D01*
X163455809Y-128674761D02*
X163551047Y-128722380D01*
X163741523Y-128722380D01*
X163836761Y-128674761D01*
X163884380Y-128579523D01*
X163884380Y-128531904D01*
X163836761Y-128436666D01*
X163741523Y-128389047D01*
X163598666Y-128389047D01*
X163503428Y-128341428D01*
X163455809Y-128246190D01*
X163455809Y-128198571D01*
X163503428Y-128103333D01*
X163598666Y-128055714D01*
X163741523Y-128055714D01*
X163836761Y-128103333D01*
X164741523Y-128722380D02*
X164741523Y-127722380D01*
X164741523Y-128674761D02*
X164646285Y-128722380D01*
X164455809Y-128722380D01*
X164360571Y-128674761D01*
X164312952Y-128627142D01*
X164265333Y-128531904D01*
X164265333Y-128246190D01*
X164312952Y-128150952D01*
X164360571Y-128103333D01*
X164455809Y-128055714D01*
X164646285Y-128055714D01*
X164741523Y-128103333D01*
X177038095Y-107747619D02*
X177085714Y-107700000D01*
X177180952Y-107652380D01*
X177419047Y-107652380D01*
X177514285Y-107700000D01*
X177561904Y-107747619D01*
X177609523Y-107842857D01*
X177609523Y-107938095D01*
X177561904Y-108080952D01*
X176990476Y-108652380D01*
X177609523Y-108652380D01*
X178561904Y-108652380D02*
X177990476Y-108652380D01*
X178276190Y-108652380D02*
X178276190Y-107652380D01*
X178180952Y-107795238D01*
X178085714Y-107890476D01*
X177990476Y-107938095D01*
X161638095Y-107547619D02*
X161685714Y-107500000D01*
X161780952Y-107452380D01*
X162019047Y-107452380D01*
X162114285Y-107500000D01*
X162161904Y-107547619D01*
X162209523Y-107642857D01*
X162209523Y-107738095D01*
X162161904Y-107880952D01*
X161590476Y-108452380D01*
X162209523Y-108452380D01*
X162828571Y-107452380D02*
X162923809Y-107452380D01*
X163019047Y-107500000D01*
X163066666Y-107547619D01*
X163114285Y-107642857D01*
X163161904Y-107833333D01*
X163161904Y-108071428D01*
X163114285Y-108261904D01*
X163066666Y-108357142D01*
X163019047Y-108404761D01*
X162923809Y-108452380D01*
X162828571Y-108452380D01*
X162733333Y-108404761D01*
X162685714Y-108357142D01*
X162638095Y-108261904D01*
X162590476Y-108071428D01*
X162590476Y-107833333D01*
X162638095Y-107642857D01*
X162685714Y-107547619D01*
X162733333Y-107500000D01*
X162828571Y-107452380D01*
X177414285Y-54985714D02*
X177414285Y-55652380D01*
X177176190Y-54604761D02*
X176938095Y-55319047D01*
X177557142Y-55319047D01*
X178128571Y-54652380D02*
X178223809Y-54652380D01*
X178319047Y-54700000D01*
X178366666Y-54747619D01*
X178414285Y-54842857D01*
X178461904Y-55033333D01*
X178461904Y-55271428D01*
X178414285Y-55461904D01*
X178366666Y-55557142D01*
X178319047Y-55604761D01*
X178223809Y-55652380D01*
X178128571Y-55652380D01*
X178033333Y-55604761D01*
X177985714Y-55557142D01*
X177938095Y-55461904D01*
X177890476Y-55271428D01*
X177890476Y-55033333D01*
X177938095Y-54842857D01*
X177985714Y-54747619D01*
X178033333Y-54700000D01*
X178128571Y-54652380D01*
X162585714Y-55452380D02*
X162014285Y-55452380D01*
X162300000Y-55452380D02*
X162300000Y-54452380D01*
X162204761Y-54595238D01*
X162109523Y-54690476D01*
X162014285Y-54738095D01*
X149399809Y-51506380D02*
X149399809Y-50506380D01*
X150447428Y-51411142D02*
X150399809Y-51458761D01*
X150256952Y-51506380D01*
X150161714Y-51506380D01*
X150018857Y-51458761D01*
X149923619Y-51363523D01*
X149876000Y-51268285D01*
X149828380Y-51077809D01*
X149828380Y-50934952D01*
X149876000Y-50744476D01*
X149923619Y-50649238D01*
X150018857Y-50554000D01*
X150161714Y-50506380D01*
X150256952Y-50506380D01*
X150399809Y-50554000D01*
X150447428Y-50601619D01*
X150828380Y-51458761D02*
X150971238Y-51506380D01*
X151209333Y-51506380D01*
X151304571Y-51458761D01*
X151352190Y-51411142D01*
X151399809Y-51315904D01*
X151399809Y-51220666D01*
X151352190Y-51125428D01*
X151304571Y-51077809D01*
X151209333Y-51030190D01*
X151018857Y-50982571D01*
X150923619Y-50934952D01*
X150876000Y-50887333D01*
X150828380Y-50792095D01*
X150828380Y-50696857D01*
X150876000Y-50601619D01*
X150923619Y-50554000D01*
X151018857Y-50506380D01*
X151256952Y-50506380D01*
X151399809Y-50554000D01*
X151828380Y-51506380D02*
X151828380Y-50506380D01*
X152209333Y-50506380D01*
X152304571Y-50554000D01*
X152352190Y-50601619D01*
X152399809Y-50696857D01*
X152399809Y-50839714D01*
X152352190Y-50934952D01*
X152304571Y-50982571D01*
X152209333Y-51030190D01*
X151828380Y-51030190D01*
X168461904Y-115452380D02*
X168461904Y-114452380D01*
X168795238Y-115166666D01*
X169128571Y-114452380D01*
X169128571Y-115452380D01*
X169604761Y-115452380D02*
X169604761Y-114785714D01*
X169604761Y-114452380D02*
X169557142Y-114500000D01*
X169604761Y-114547619D01*
X169652380Y-114500000D01*
X169604761Y-114452380D01*
X169604761Y-114547619D01*
X170509523Y-115404761D02*
X170414285Y-115452380D01*
X170223809Y-115452380D01*
X170128571Y-115404761D01*
X170080952Y-115357142D01*
X170033333Y-115261904D01*
X170033333Y-114976190D01*
X170080952Y-114880952D01*
X170128571Y-114833333D01*
X170223809Y-114785714D01*
X170414285Y-114785714D01*
X170509523Y-114833333D01*
X170938095Y-115452380D02*
X170938095Y-114785714D01*
X170938095Y-114976190D02*
X170985714Y-114880952D01*
X171033333Y-114833333D01*
X171128571Y-114785714D01*
X171223809Y-114785714D01*
X171700000Y-115452380D02*
X171604761Y-115404761D01*
X171557142Y-115357142D01*
X171509523Y-115261904D01*
X171509523Y-114976190D01*
X171557142Y-114880952D01*
X171604761Y-114833333D01*
X171700000Y-114785714D01*
X171842857Y-114785714D01*
X171938095Y-114833333D01*
X171985714Y-114880952D01*
X172033333Y-114976190D01*
X172033333Y-115261904D01*
X171985714Y-115357142D01*
X171938095Y-115404761D01*
X171842857Y-115452380D01*
X171700000Y-115452380D01*
X172414285Y-115404761D02*
X172557142Y-115452380D01*
X172795238Y-115452380D01*
X172890476Y-115404761D01*
X172938095Y-115357142D01*
X172985714Y-115261904D01*
X172985714Y-115166666D01*
X172938095Y-115071428D01*
X172890476Y-115023809D01*
X172795238Y-114976190D01*
X172604761Y-114928571D01*
X172509523Y-114880952D01*
X172461904Y-114833333D01*
X172414285Y-114738095D01*
X172414285Y-114642857D01*
X172461904Y-114547619D01*
X172509523Y-114500000D01*
X172604761Y-114452380D01*
X172842857Y-114452380D01*
X172985714Y-114500000D01*
X173414285Y-115452380D02*
X173414285Y-114452380D01*
X173652380Y-114452380D01*
X173795238Y-114500000D01*
X173890476Y-114595238D01*
X173938095Y-114690476D01*
X173985714Y-114880952D01*
X173985714Y-115023809D01*
X173938095Y-115214285D01*
X173890476Y-115309523D01*
X173795238Y-115404761D01*
X173652380Y-115452380D01*
X173414285Y-115452380D01*
X159714285Y-109652380D02*
X160285714Y-109652380D01*
X160000000Y-110652380D02*
X160000000Y-109652380D01*
X160476190Y-109652380D02*
X161047619Y-109652380D01*
X160761904Y-110652380D02*
X160761904Y-109652380D01*
X161857142Y-110652380D02*
X161380952Y-110652380D01*
X161380952Y-109652380D01*
X162952380Y-109652380D02*
X162952380Y-110461904D01*
X163000000Y-110557142D01*
X163047619Y-110604761D01*
X163142857Y-110652380D01*
X163333333Y-110652380D01*
X163428571Y-110604761D01*
X163476190Y-110557142D01*
X163523809Y-110461904D01*
X163523809Y-109652380D01*
X163952380Y-110366666D02*
X164428571Y-110366666D01*
X163857142Y-110652380D02*
X164190476Y-109652380D01*
X164523809Y-110652380D01*
X165428571Y-110652380D02*
X165095238Y-110176190D01*
X164857142Y-110652380D02*
X164857142Y-109652380D01*
X165238095Y-109652380D01*
X165333333Y-109700000D01*
X165380952Y-109747619D01*
X165428571Y-109842857D01*
X165428571Y-109985714D01*
X165380952Y-110080952D01*
X165333333Y-110128571D01*
X165238095Y-110176190D01*
X164857142Y-110176190D01*
X165714285Y-109652380D02*
X166285714Y-109652380D01*
X166000000Y-110652380D02*
X166000000Y-109652380D01*
D11*
%TO.C,D2*%
X181824000Y-132842000D02*
G75*
G03*
X181824000Y-132842000I-2500000J0D01*
G01*
X176764000Y-131297000D02*
X176764000Y-134387000D01*
X182314000Y-132841538D02*
G75*
G02*
X176764000Y-134386830I-2990000J-462D01*
G01*
X182314000Y-132842462D02*
G75*
G03*
X176764000Y-131297170I-2990000J462D01*
G01*
%TO.C,D1*%
X174712000Y-132842000D02*
G75*
G03*
X174712000Y-132842000I-2500000J0D01*
G01*
X169652000Y-131297000D02*
X169652000Y-134387000D01*
X175202000Y-132841538D02*
G75*
G02*
X169652000Y-134386830I-2990000J-462D01*
G01*
X175202000Y-132842462D02*
G75*
G03*
X169652000Y-131297170I-2990000J462D01*
G01*
%TO.C,U1*%
X169120000Y-56074000D02*
X163660000Y-56074000D01*
X163660000Y-56074000D02*
X163660000Y-106994000D01*
X163660000Y-106994000D02*
X176580000Y-106994000D01*
X176580000Y-106994000D02*
X176580000Y-56074000D01*
X176580000Y-56074000D02*
X171120000Y-56074000D01*
X161170000Y-56014000D02*
X161170000Y-107054000D01*
X161170000Y-107054000D02*
X179070000Y-107054000D01*
X179070000Y-107054000D02*
X179070000Y-56014000D01*
X179070000Y-56014000D02*
X161170000Y-56014000D01*
X171120000Y-56074000D02*
G75*
G02*
X169120000Y-56074000I-1000000J0D01*
G01*
%TO.C,U2*%
X150384000Y-56074000D02*
X144924000Y-56074000D01*
X144924000Y-56074000D02*
X144924000Y-106994000D01*
X144924000Y-106994000D02*
X157844000Y-106994000D01*
X157844000Y-106994000D02*
X157844000Y-56074000D01*
X157844000Y-56074000D02*
X152384000Y-56074000D01*
X142434000Y-56014000D02*
X142434000Y-107054000D01*
X142434000Y-107054000D02*
X160334000Y-107054000D01*
X160334000Y-107054000D02*
X160334000Y-56014000D01*
X160334000Y-56014000D02*
X142434000Y-56014000D01*
X152384000Y-56074000D02*
G75*
G02*
X150384000Y-56074000I-1000000J0D01*
G01*
%TO.C,J2*%
X143350000Y-113670000D02*
X143350000Y-116330000D01*
X163730000Y-113670000D02*
X143350000Y-113670000D01*
X163730000Y-116330000D02*
X143350000Y-116330000D01*
X163730000Y-113670000D02*
X163730000Y-116330000D01*
X165000000Y-113670000D02*
X166330000Y-113670000D01*
X166330000Y-113670000D02*
X166330000Y-115000000D01*
%TO.C,J3*%
X143670000Y-111830000D02*
X143670000Y-110500000D01*
X145000000Y-111830000D02*
X143670000Y-111830000D01*
X146270000Y-111830000D02*
X146270000Y-109170000D01*
X146270000Y-109170000D02*
X159030000Y-109170000D01*
X146270000Y-111830000D02*
X159030000Y-111830000D01*
X159030000Y-111830000D02*
X159030000Y-109170000D01*
%TO.C,JP1*%
X170374000Y-109033000D02*
X170374000Y-111693000D01*
X172974000Y-109033000D02*
X170374000Y-109033000D01*
X172974000Y-111693000D02*
X170374000Y-111693000D01*
X172974000Y-109033000D02*
X172974000Y-111693000D01*
X174244000Y-109033000D02*
X175574000Y-109033000D01*
X175574000Y-109033000D02*
X175574000Y-110363000D01*
%TO.C,J4*%
X180070000Y-76710000D02*
X182730000Y-76710000D01*
X180070000Y-58870000D02*
X180070000Y-76710000D01*
X182730000Y-58870000D02*
X182730000Y-76710000D01*
X180070000Y-58870000D02*
X182730000Y-58870000D01*
X180070000Y-57600000D02*
X180070000Y-56270000D01*
X180070000Y-56270000D02*
X181400000Y-56270000D01*
%TO.C,SW1*%
X175500000Y-54000000D02*
X180000000Y-54000000D01*
X174250000Y-50000000D02*
X174250000Y-51500000D01*
X180000000Y-47500000D02*
X175500000Y-47500000D01*
X181250000Y-51500000D02*
X181250000Y-50000000D01*
%TO.C,J1*%
X158410000Y-49830000D02*
X158410000Y-47170000D01*
X145650000Y-49830000D02*
X158410000Y-49830000D01*
X145650000Y-47170000D02*
X158410000Y-47170000D01*
X145650000Y-49830000D02*
X145650000Y-47170000D01*
X144380000Y-49830000D02*
X143050000Y-49830000D01*
X143050000Y-49830000D02*
X143050000Y-48500000D01*
%TO.C,D2*%
D10*
X178331904Y-127706380D02*
X178331904Y-126706380D01*
X178570000Y-126706380D01*
X178712857Y-126754000D01*
X178808095Y-126849238D01*
X178855714Y-126944476D01*
X178903333Y-127134952D01*
X178903333Y-127277809D01*
X178855714Y-127468285D01*
X178808095Y-127563523D01*
X178712857Y-127658761D01*
X178570000Y-127706380D01*
X178331904Y-127706380D01*
X179284285Y-126801619D02*
X179331904Y-126754000D01*
X179427142Y-126706380D01*
X179665238Y-126706380D01*
X179760476Y-126754000D01*
X179808095Y-126801619D01*
X179855714Y-126896857D01*
X179855714Y-126992095D01*
X179808095Y-127134952D01*
X179236666Y-127706380D01*
X179855714Y-127706380D01*
%TO.C,D1*%
X171473904Y-127706380D02*
X171473904Y-126706380D01*
X171712000Y-126706380D01*
X171854857Y-126754000D01*
X171950095Y-126849238D01*
X171997714Y-126944476D01*
X172045333Y-127134952D01*
X172045333Y-127277809D01*
X171997714Y-127468285D01*
X171950095Y-127563523D01*
X171854857Y-127658761D01*
X171712000Y-127706380D01*
X171473904Y-127706380D01*
X172997714Y-127706380D02*
X172426285Y-127706380D01*
X172712000Y-127706380D02*
X172712000Y-126706380D01*
X172616761Y-126849238D01*
X172521523Y-126944476D01*
X172426285Y-126992095D01*
%TO.C,U1*%
X164738095Y-54452380D02*
X164738095Y-55261904D01*
X164785714Y-55357142D01*
X164833333Y-55404761D01*
X164928571Y-55452380D01*
X165119047Y-55452380D01*
X165214285Y-55404761D01*
X165261904Y-55357142D01*
X165309523Y-55261904D01*
X165309523Y-54452380D01*
X166309523Y-55452380D02*
X165738095Y-55452380D01*
X166023809Y-55452380D02*
X166023809Y-54452380D01*
X165928571Y-54595238D01*
X165833333Y-54690476D01*
X165738095Y-54738095D01*
%TO.C,U2*%
X144438095Y-54452380D02*
X144438095Y-55261904D01*
X144485714Y-55357142D01*
X144533333Y-55404761D01*
X144628571Y-55452380D01*
X144819047Y-55452380D01*
X144914285Y-55404761D01*
X144961904Y-55357142D01*
X145009523Y-55261904D01*
X145009523Y-54452380D01*
X145438095Y-54547619D02*
X145485714Y-54500000D01*
X145580952Y-54452380D01*
X145819047Y-54452380D01*
X145914285Y-54500000D01*
X145961904Y-54547619D01*
X146009523Y-54642857D01*
X146009523Y-54738095D01*
X145961904Y-54880952D01*
X145390476Y-55452380D01*
X146009523Y-55452380D01*
%TO.C,J2*%
X166996666Y-114452380D02*
X166996666Y-115166666D01*
X166949047Y-115309523D01*
X166853809Y-115404761D01*
X166710952Y-115452380D01*
X166615714Y-115452380D01*
X167425238Y-114547619D02*
X167472857Y-114500000D01*
X167568095Y-114452380D01*
X167806190Y-114452380D01*
X167901428Y-114500000D01*
X167949047Y-114547619D01*
X167996666Y-114642857D01*
X167996666Y-114738095D01*
X167949047Y-114880952D01*
X167377619Y-115452380D01*
X167996666Y-115452380D01*
%TO.C,J3*%
X141666666Y-110052380D02*
X141666666Y-110766666D01*
X141619047Y-110909523D01*
X141523809Y-111004761D01*
X141380952Y-111052380D01*
X141285714Y-111052380D01*
X142047619Y-110052380D02*
X142666666Y-110052380D01*
X142333333Y-110433333D01*
X142476190Y-110433333D01*
X142571428Y-110480952D01*
X142619047Y-110528571D01*
X142666666Y-110623809D01*
X142666666Y-110861904D01*
X142619047Y-110957142D01*
X142571428Y-111004761D01*
X142476190Y-111052380D01*
X142190476Y-111052380D01*
X142095238Y-111004761D01*
X142047619Y-110957142D01*
%TO.C,JP1*%
X176566666Y-109252380D02*
X176566666Y-109966666D01*
X176519047Y-110109523D01*
X176423809Y-110204761D01*
X176280952Y-110252380D01*
X176185714Y-110252380D01*
X177042857Y-110252380D02*
X177042857Y-109252380D01*
X177423809Y-109252380D01*
X177519047Y-109300000D01*
X177566666Y-109347619D01*
X177614285Y-109442857D01*
X177614285Y-109585714D01*
X177566666Y-109680952D01*
X177519047Y-109728571D01*
X177423809Y-109776190D01*
X177042857Y-109776190D01*
X178566666Y-110252380D02*
X177995238Y-110252380D01*
X178280952Y-110252380D02*
X178280952Y-109252380D01*
X178185714Y-109395238D01*
X178090476Y-109490476D01*
X177995238Y-109538095D01*
%TO.C,J4*%
X181066666Y-54722380D02*
X181066666Y-55436666D01*
X181019047Y-55579523D01*
X180923809Y-55674761D01*
X180780952Y-55722380D01*
X180685714Y-55722380D01*
X181971428Y-55055714D02*
X181971428Y-55722380D01*
X181733333Y-54674761D02*
X181495238Y-55389047D01*
X182114285Y-55389047D01*
%TO.C,SW1*%
X176466666Y-51104761D02*
X176609523Y-51152380D01*
X176847619Y-51152380D01*
X176942857Y-51104761D01*
X176990476Y-51057142D01*
X177038095Y-50961904D01*
X177038095Y-50866666D01*
X176990476Y-50771428D01*
X176942857Y-50723809D01*
X176847619Y-50676190D01*
X176657142Y-50628571D01*
X176561904Y-50580952D01*
X176514285Y-50533333D01*
X176466666Y-50438095D01*
X176466666Y-50342857D01*
X176514285Y-50247619D01*
X176561904Y-50200000D01*
X176657142Y-50152380D01*
X176895238Y-50152380D01*
X177038095Y-50200000D01*
X177371428Y-50152380D02*
X177609523Y-51152380D01*
X177800000Y-50438095D01*
X177990476Y-51152380D01*
X178228571Y-50152380D01*
X179133333Y-51152380D02*
X178561904Y-51152380D01*
X178847619Y-51152380D02*
X178847619Y-50152380D01*
X178752380Y-50295238D01*
X178657142Y-50390476D01*
X178561904Y-50438095D01*
%TO.C,J1*%
X141266666Y-47952380D02*
X141266666Y-48666666D01*
X141219047Y-48809523D01*
X141123809Y-48904761D01*
X140980952Y-48952380D01*
X140885714Y-48952380D01*
X142266666Y-48952380D02*
X141695238Y-48952380D01*
X141980952Y-48952380D02*
X141980952Y-47952380D01*
X141885714Y-48095238D01*
X141790476Y-48190476D01*
X141695238Y-48238095D01*
%TD*%
M02*
