%TF.GenerationSoftware,KiCad,Pcbnew,(5.1.10)-1*%
%TF.CreationDate,2021-10-22T16:43:04-07:00*%
%TF.ProjectId,z80_ssd,7a38305f-7373-4642-9e6b-696361645f70,rev?*%
%TF.SameCoordinates,Original*%
%TF.FileFunction,Legend,Bot*%
%TF.FilePolarity,Positive*%
%FSLAX46Y46*%
G04 Gerber Fmt 4.6, Leading zero omitted, Abs format (unit mm)*
G04 Created by KiCad (PCBNEW (5.1.10)-1) date 2021-10-22 16:43:04*
%MOMM*%
%LPD*%
G01*
G04 APERTURE LIST*
%ADD10C,0.150000*%
%ADD11C,0.120000*%
G04 APERTURE END LIST*
D10*
X180985714Y-86639047D02*
X181795238Y-86639047D01*
X181890476Y-86591428D01*
X181938095Y-86543809D01*
X181985714Y-86448571D01*
X181985714Y-86305714D01*
X181938095Y-86210476D01*
X181604761Y-86639047D02*
X181652380Y-86543809D01*
X181652380Y-86353333D01*
X181604761Y-86258095D01*
X181557142Y-86210476D01*
X181461904Y-86162857D01*
X181176190Y-86162857D01*
X181080952Y-86210476D01*
X181033333Y-86258095D01*
X180985714Y-86353333D01*
X180985714Y-86543809D01*
X181033333Y-86639047D01*
X181652380Y-87115238D02*
X180985714Y-87115238D01*
X180652380Y-87115238D02*
X180700000Y-87067619D01*
X180747619Y-87115238D01*
X180700000Y-87162857D01*
X180652380Y-87115238D01*
X180747619Y-87115238D01*
X180985714Y-87448571D02*
X180985714Y-87829523D01*
X180652380Y-87591428D02*
X181509523Y-87591428D01*
X181604761Y-87639047D01*
X181652380Y-87734285D01*
X181652380Y-87829523D01*
X181652380Y-88162857D02*
X180652380Y-88162857D01*
X181652380Y-88591428D02*
X181128571Y-88591428D01*
X181033333Y-88543809D01*
X180985714Y-88448571D01*
X180985714Y-88305714D01*
X181033333Y-88210476D01*
X181080952Y-88162857D01*
X180985714Y-89496190D02*
X181652380Y-89496190D01*
X180985714Y-89067619D02*
X181509523Y-89067619D01*
X181604761Y-89115238D01*
X181652380Y-89210476D01*
X181652380Y-89353333D01*
X181604761Y-89448571D01*
X181557142Y-89496190D01*
X181652380Y-89972380D02*
X180652380Y-89972380D01*
X181033333Y-89972380D02*
X180985714Y-90067619D01*
X180985714Y-90258095D01*
X181033333Y-90353333D01*
X181080952Y-90400952D01*
X181176190Y-90448571D01*
X181461904Y-90448571D01*
X181557142Y-90400952D01*
X181604761Y-90353333D01*
X181652380Y-90258095D01*
X181652380Y-90067619D01*
X181604761Y-89972380D01*
X181557142Y-90877142D02*
X181604761Y-90924761D01*
X181652380Y-90877142D01*
X181604761Y-90829523D01*
X181557142Y-90877142D01*
X181652380Y-90877142D01*
X181604761Y-91781904D02*
X181652380Y-91686666D01*
X181652380Y-91496190D01*
X181604761Y-91400952D01*
X181557142Y-91353333D01*
X181461904Y-91305714D01*
X181176190Y-91305714D01*
X181080952Y-91353333D01*
X181033333Y-91400952D01*
X180985714Y-91496190D01*
X180985714Y-91686666D01*
X181033333Y-91781904D01*
X181652380Y-92353333D02*
X181604761Y-92258095D01*
X181557142Y-92210476D01*
X181461904Y-92162857D01*
X181176190Y-92162857D01*
X181080952Y-92210476D01*
X181033333Y-92258095D01*
X180985714Y-92353333D01*
X180985714Y-92496190D01*
X181033333Y-92591428D01*
X181080952Y-92639047D01*
X181176190Y-92686666D01*
X181461904Y-92686666D01*
X181557142Y-92639047D01*
X181604761Y-92591428D01*
X181652380Y-92496190D01*
X181652380Y-92353333D01*
X181652380Y-93115238D02*
X180985714Y-93115238D01*
X181080952Y-93115238D02*
X181033333Y-93162857D01*
X180985714Y-93258095D01*
X180985714Y-93400952D01*
X181033333Y-93496190D01*
X181128571Y-93543809D01*
X181652380Y-93543809D01*
X181128571Y-93543809D02*
X181033333Y-93591428D01*
X180985714Y-93686666D01*
X180985714Y-93829523D01*
X181033333Y-93924761D01*
X181128571Y-93972380D01*
X181652380Y-93972380D01*
X180604761Y-95162857D02*
X181890476Y-94305714D01*
X181652380Y-95496190D02*
X180652380Y-95496190D01*
X181652380Y-95924761D02*
X181128571Y-95924761D01*
X181033333Y-95877142D01*
X180985714Y-95781904D01*
X180985714Y-95639047D01*
X181033333Y-95543809D01*
X181080952Y-95496190D01*
X181652380Y-96400952D02*
X180652380Y-96400952D01*
X181652380Y-96829523D02*
X181128571Y-96829523D01*
X181033333Y-96781904D01*
X180985714Y-96686666D01*
X180985714Y-96543809D01*
X181033333Y-96448571D01*
X181080952Y-96400952D01*
X181652380Y-97734285D02*
X181128571Y-97734285D01*
X181033333Y-97686666D01*
X180985714Y-97591428D01*
X180985714Y-97400952D01*
X181033333Y-97305714D01*
X181604761Y-97734285D02*
X181652380Y-97639047D01*
X181652380Y-97400952D01*
X181604761Y-97305714D01*
X181509523Y-97258095D01*
X181414285Y-97258095D01*
X181319047Y-97305714D01*
X181271428Y-97400952D01*
X181271428Y-97639047D01*
X181223809Y-97734285D01*
X181652380Y-98210476D02*
X180985714Y-98210476D01*
X181176190Y-98210476D02*
X181080952Y-98258095D01*
X181033333Y-98305714D01*
X180985714Y-98400952D01*
X180985714Y-98496190D01*
X180985714Y-98686666D02*
X180985714Y-99067619D01*
X180652380Y-98829523D02*
X181509523Y-98829523D01*
X181604761Y-98877142D01*
X181652380Y-98972380D01*
X181652380Y-99067619D01*
X181604761Y-99781904D02*
X181652380Y-99686666D01*
X181652380Y-99496190D01*
X181604761Y-99400952D01*
X181509523Y-99353333D01*
X181128571Y-99353333D01*
X181033333Y-99400952D01*
X180985714Y-99496190D01*
X180985714Y-99686666D01*
X181033333Y-99781904D01*
X181128571Y-99829523D01*
X181223809Y-99829523D01*
X181319047Y-99353333D01*
X180604761Y-100972380D02*
X181890476Y-100115238D01*
X180985714Y-101210476D02*
X180985714Y-101734285D01*
X181652380Y-101210476D01*
X181652380Y-101734285D01*
X181080952Y-102258095D02*
X181033333Y-102162857D01*
X180985714Y-102115238D01*
X180890476Y-102067619D01*
X180842857Y-102067619D01*
X180747619Y-102115238D01*
X180700000Y-102162857D01*
X180652380Y-102258095D01*
X180652380Y-102448571D01*
X180700000Y-102543809D01*
X180747619Y-102591428D01*
X180842857Y-102639047D01*
X180890476Y-102639047D01*
X180985714Y-102591428D01*
X181033333Y-102543809D01*
X181080952Y-102448571D01*
X181080952Y-102258095D01*
X181128571Y-102162857D01*
X181176190Y-102115238D01*
X181271428Y-102067619D01*
X181461904Y-102067619D01*
X181557142Y-102115238D01*
X181604761Y-102162857D01*
X181652380Y-102258095D01*
X181652380Y-102448571D01*
X181604761Y-102543809D01*
X181557142Y-102591428D01*
X181461904Y-102639047D01*
X181271428Y-102639047D01*
X181176190Y-102591428D01*
X181128571Y-102543809D01*
X181080952Y-102448571D01*
X180652380Y-103258095D02*
X180652380Y-103353333D01*
X180700000Y-103448571D01*
X180747619Y-103496190D01*
X180842857Y-103543809D01*
X181033333Y-103591428D01*
X181271428Y-103591428D01*
X181461904Y-103543809D01*
X181557142Y-103496190D01*
X181604761Y-103448571D01*
X181652380Y-103353333D01*
X181652380Y-103258095D01*
X181604761Y-103162857D01*
X181557142Y-103115238D01*
X181461904Y-103067619D01*
X181271428Y-103020000D01*
X181033333Y-103020000D01*
X180842857Y-103067619D01*
X180747619Y-103115238D01*
X180700000Y-103162857D01*
X180652380Y-103258095D01*
X181747619Y-103781904D02*
X181747619Y-104543809D01*
X181604761Y-104734285D02*
X181652380Y-104829523D01*
X181652380Y-105020000D01*
X181604761Y-105115238D01*
X181509523Y-105162857D01*
X181461904Y-105162857D01*
X181366666Y-105115238D01*
X181319047Y-105020000D01*
X181319047Y-104877142D01*
X181271428Y-104781904D01*
X181176190Y-104734285D01*
X181128571Y-104734285D01*
X181033333Y-104781904D01*
X180985714Y-104877142D01*
X180985714Y-105020000D01*
X181033333Y-105115238D01*
X181604761Y-105543809D02*
X181652380Y-105639047D01*
X181652380Y-105829523D01*
X181604761Y-105924761D01*
X181509523Y-105972380D01*
X181461904Y-105972380D01*
X181366666Y-105924761D01*
X181319047Y-105829523D01*
X181319047Y-105686666D01*
X181271428Y-105591428D01*
X181176190Y-105543809D01*
X181128571Y-105543809D01*
X181033333Y-105591428D01*
X180985714Y-105686666D01*
X180985714Y-105829523D01*
X181033333Y-105924761D01*
X181652380Y-106829523D02*
X180652380Y-106829523D01*
X181604761Y-106829523D02*
X181652380Y-106734285D01*
X181652380Y-106543809D01*
X181604761Y-106448571D01*
X181557142Y-106400952D01*
X181461904Y-106353333D01*
X181176190Y-106353333D01*
X181080952Y-106400952D01*
X181033333Y-106448571D01*
X180985714Y-106543809D01*
X180985714Y-106734285D01*
X181033333Y-106829523D01*
X175793380Y-112196952D02*
X175793380Y-112863619D01*
X176793380Y-112196952D01*
X176793380Y-112863619D01*
X176221952Y-113387428D02*
X176174333Y-113292190D01*
X176126714Y-113244571D01*
X176031476Y-113196952D01*
X175983857Y-113196952D01*
X175888619Y-113244571D01*
X175841000Y-113292190D01*
X175793380Y-113387428D01*
X175793380Y-113577904D01*
X175841000Y-113673142D01*
X175888619Y-113720761D01*
X175983857Y-113768380D01*
X176031476Y-113768380D01*
X176126714Y-113720761D01*
X176174333Y-113673142D01*
X176221952Y-113577904D01*
X176221952Y-113387428D01*
X176269571Y-113292190D01*
X176317190Y-113244571D01*
X176412428Y-113196952D01*
X176602904Y-113196952D01*
X176698142Y-113244571D01*
X176745761Y-113292190D01*
X176793380Y-113387428D01*
X176793380Y-113577904D01*
X176745761Y-113673142D01*
X176698142Y-113720761D01*
X176602904Y-113768380D01*
X176412428Y-113768380D01*
X176317190Y-113720761D01*
X176269571Y-113673142D01*
X176221952Y-113577904D01*
X175793380Y-114387428D02*
X175793380Y-114482666D01*
X175841000Y-114577904D01*
X175888619Y-114625523D01*
X175983857Y-114673142D01*
X176174333Y-114720761D01*
X176412428Y-114720761D01*
X176602904Y-114673142D01*
X176698142Y-114625523D01*
X176745761Y-114577904D01*
X176793380Y-114482666D01*
X176793380Y-114387428D01*
X176745761Y-114292190D01*
X176698142Y-114244571D01*
X176602904Y-114196952D01*
X176412428Y-114149333D01*
X176174333Y-114149333D01*
X175983857Y-114196952D01*
X175888619Y-114244571D01*
X175841000Y-114292190D01*
X175793380Y-114387428D01*
X176745761Y-115863619D02*
X176793380Y-116006476D01*
X176793380Y-116244571D01*
X176745761Y-116339809D01*
X176698142Y-116387428D01*
X176602904Y-116435047D01*
X176507666Y-116435047D01*
X176412428Y-116387428D01*
X176364809Y-116339809D01*
X176317190Y-116244571D01*
X176269571Y-116054095D01*
X176221952Y-115958857D01*
X176174333Y-115911238D01*
X176079095Y-115863619D01*
X175983857Y-115863619D01*
X175888619Y-115911238D01*
X175841000Y-115958857D01*
X175793380Y-116054095D01*
X175793380Y-116292190D01*
X175841000Y-116435047D01*
X176745761Y-116816000D02*
X176793380Y-116958857D01*
X176793380Y-117196952D01*
X176745761Y-117292190D01*
X176698142Y-117339809D01*
X176602904Y-117387428D01*
X176507666Y-117387428D01*
X176412428Y-117339809D01*
X176364809Y-117292190D01*
X176317190Y-117196952D01*
X176269571Y-117006476D01*
X176221952Y-116911238D01*
X176174333Y-116863619D01*
X176079095Y-116816000D01*
X175983857Y-116816000D01*
X175888619Y-116863619D01*
X175841000Y-116911238D01*
X175793380Y-117006476D01*
X175793380Y-117244571D01*
X175841000Y-117387428D01*
X176793380Y-117816000D02*
X175793380Y-117816000D01*
X175793380Y-118054095D01*
X175841000Y-118196952D01*
X175936238Y-118292190D01*
X176031476Y-118339809D01*
X176221952Y-118387428D01*
X176364809Y-118387428D01*
X176555285Y-118339809D01*
X176650523Y-118292190D01*
X176745761Y-118196952D01*
X176793380Y-118054095D01*
X176793380Y-117816000D01*
X178443380Y-113958857D02*
X177967190Y-113625523D01*
X178443380Y-113387428D02*
X177443380Y-113387428D01*
X177443380Y-113768380D01*
X177491000Y-113863619D01*
X177538619Y-113911238D01*
X177633857Y-113958857D01*
X177776714Y-113958857D01*
X177871952Y-113911238D01*
X177919571Y-113863619D01*
X177967190Y-113768380D01*
X177967190Y-113387428D01*
X178395761Y-114768380D02*
X178443380Y-114673142D01*
X178443380Y-114482666D01*
X178395761Y-114387428D01*
X178300523Y-114339809D01*
X177919571Y-114339809D01*
X177824333Y-114387428D01*
X177776714Y-114482666D01*
X177776714Y-114673142D01*
X177824333Y-114768380D01*
X177919571Y-114816000D01*
X178014809Y-114816000D01*
X178110047Y-114339809D01*
X177776714Y-115149333D02*
X178443380Y-115387428D01*
X177776714Y-115625523D01*
X178443380Y-117292190D02*
X178443380Y-116720761D01*
X178443380Y-117006476D02*
X177443380Y-117006476D01*
X177586238Y-116911238D01*
X177681476Y-116816000D01*
X177729095Y-116720761D01*
X179188619Y-110458857D02*
X179141000Y-110506476D01*
X179093380Y-110601714D01*
X179093380Y-110839809D01*
X179141000Y-110935047D01*
X179188619Y-110982666D01*
X179283857Y-111030285D01*
X179379095Y-111030285D01*
X179521952Y-110982666D01*
X180093380Y-110411238D01*
X180093380Y-111030285D01*
X179093380Y-111649333D02*
X179093380Y-111744571D01*
X179141000Y-111839809D01*
X179188619Y-111887428D01*
X179283857Y-111935047D01*
X179474333Y-111982666D01*
X179712428Y-111982666D01*
X179902904Y-111935047D01*
X179998142Y-111887428D01*
X180045761Y-111839809D01*
X180093380Y-111744571D01*
X180093380Y-111649333D01*
X180045761Y-111554095D01*
X179998142Y-111506476D01*
X179902904Y-111458857D01*
X179712428Y-111411238D01*
X179474333Y-111411238D01*
X179283857Y-111458857D01*
X179188619Y-111506476D01*
X179141000Y-111554095D01*
X179093380Y-111649333D01*
X179188619Y-112363619D02*
X179141000Y-112411238D01*
X179093380Y-112506476D01*
X179093380Y-112744571D01*
X179141000Y-112839809D01*
X179188619Y-112887428D01*
X179283857Y-112935047D01*
X179379095Y-112935047D01*
X179521952Y-112887428D01*
X180093380Y-112316000D01*
X180093380Y-112935047D01*
X180093380Y-113887428D02*
X180093380Y-113316000D01*
X180093380Y-113601714D02*
X179093380Y-113601714D01*
X179236238Y-113506476D01*
X179331476Y-113411238D01*
X179379095Y-113316000D01*
X179712428Y-114316000D02*
X179712428Y-115077904D01*
X180093380Y-116077904D02*
X180093380Y-115506476D01*
X180093380Y-115792190D02*
X179093380Y-115792190D01*
X179236238Y-115696952D01*
X179331476Y-115601714D01*
X179379095Y-115506476D01*
X179093380Y-116696952D02*
X179093380Y-116792190D01*
X179141000Y-116887428D01*
X179188619Y-116935047D01*
X179283857Y-116982666D01*
X179474333Y-117030285D01*
X179712428Y-117030285D01*
X179902904Y-116982666D01*
X179998142Y-116935047D01*
X180045761Y-116887428D01*
X180093380Y-116792190D01*
X180093380Y-116696952D01*
X180045761Y-116601714D01*
X179998142Y-116554095D01*
X179902904Y-116506476D01*
X179712428Y-116458857D01*
X179474333Y-116458857D01*
X179283857Y-116506476D01*
X179188619Y-116554095D01*
X179141000Y-116601714D01*
X179093380Y-116696952D01*
X179712428Y-117458857D02*
X179712428Y-118220761D01*
X179093380Y-118887428D02*
X179093380Y-118982666D01*
X179141000Y-119077904D01*
X179188619Y-119125523D01*
X179283857Y-119173142D01*
X179474333Y-119220761D01*
X179712428Y-119220761D01*
X179902904Y-119173142D01*
X179998142Y-119125523D01*
X180045761Y-119077904D01*
X180093380Y-118982666D01*
X180093380Y-118887428D01*
X180045761Y-118792190D01*
X179998142Y-118744571D01*
X179902904Y-118696952D01*
X179712428Y-118649333D01*
X179474333Y-118649333D01*
X179283857Y-118696952D01*
X179188619Y-118744571D01*
X179141000Y-118792190D01*
X179093380Y-118887428D01*
X180093380Y-119696952D02*
X180093380Y-119887428D01*
X180045761Y-119982666D01*
X179998142Y-120030285D01*
X179855285Y-120125523D01*
X179664809Y-120173142D01*
X179283857Y-120173142D01*
X179188619Y-120125523D01*
X179141000Y-120077904D01*
X179093380Y-119982666D01*
X179093380Y-119792190D01*
X179141000Y-119696952D01*
X179188619Y-119649333D01*
X179283857Y-119601714D01*
X179521952Y-119601714D01*
X179617190Y-119649333D01*
X179664809Y-119696952D01*
X179712428Y-119792190D01*
X179712428Y-119982666D01*
X179664809Y-120077904D01*
X179617190Y-120125523D01*
X179521952Y-120173142D01*
X182124333Y-110030285D02*
X182076714Y-109982666D01*
X181933857Y-109887428D01*
X181838619Y-109839809D01*
X181695761Y-109792190D01*
X181457666Y-109744571D01*
X181267190Y-109744571D01*
X181029095Y-109792190D01*
X180886238Y-109839809D01*
X180791000Y-109887428D01*
X180648142Y-109982666D01*
X180600523Y-110030285D01*
X181695761Y-110839809D02*
X181743380Y-110744571D01*
X181743380Y-110554095D01*
X181695761Y-110458857D01*
X181648142Y-110411238D01*
X181552904Y-110363619D01*
X181267190Y-110363619D01*
X181171952Y-110411238D01*
X181124333Y-110458857D01*
X181076714Y-110554095D01*
X181076714Y-110744571D01*
X181124333Y-110839809D01*
X182124333Y-111173142D02*
X182076714Y-111220761D01*
X181933857Y-111316000D01*
X181838619Y-111363619D01*
X181695761Y-111411238D01*
X181457666Y-111458857D01*
X181267190Y-111458857D01*
X181029095Y-111411238D01*
X180886238Y-111363619D01*
X180791000Y-111316000D01*
X180648142Y-111220761D01*
X180600523Y-111173142D01*
X180838619Y-112649333D02*
X180791000Y-112696952D01*
X180743380Y-112792190D01*
X180743380Y-113030285D01*
X180791000Y-113125523D01*
X180838619Y-113173142D01*
X180933857Y-113220761D01*
X181029095Y-113220761D01*
X181171952Y-113173142D01*
X181743380Y-112601714D01*
X181743380Y-113220761D01*
X180743380Y-113839809D02*
X180743380Y-113935047D01*
X180791000Y-114030285D01*
X180838619Y-114077904D01*
X180933857Y-114125523D01*
X181124333Y-114173142D01*
X181362428Y-114173142D01*
X181552904Y-114125523D01*
X181648142Y-114077904D01*
X181695761Y-114030285D01*
X181743380Y-113935047D01*
X181743380Y-113839809D01*
X181695761Y-113744571D01*
X181648142Y-113696952D01*
X181552904Y-113649333D01*
X181362428Y-113601714D01*
X181124333Y-113601714D01*
X180933857Y-113649333D01*
X180838619Y-113696952D01*
X180791000Y-113744571D01*
X180743380Y-113839809D01*
X180838619Y-114554095D02*
X180791000Y-114601714D01*
X180743380Y-114696952D01*
X180743380Y-114935047D01*
X180791000Y-115030285D01*
X180838619Y-115077904D01*
X180933857Y-115125523D01*
X181029095Y-115125523D01*
X181171952Y-115077904D01*
X181743380Y-114506476D01*
X181743380Y-115125523D01*
X181743380Y-116077904D02*
X181743380Y-115506476D01*
X181743380Y-115792190D02*
X180743380Y-115792190D01*
X180886238Y-115696952D01*
X180981476Y-115601714D01*
X181029095Y-115506476D01*
X180743380Y-117173142D02*
X181743380Y-117411238D01*
X181029095Y-117601714D01*
X181743380Y-117792190D01*
X180743380Y-118030285D01*
X180743380Y-118316000D02*
X180743380Y-118982666D01*
X181743380Y-118316000D01*
X181743380Y-118982666D01*
X180838619Y-119316000D02*
X180791000Y-119363619D01*
X180743380Y-119458857D01*
X180743380Y-119696952D01*
X180791000Y-119792190D01*
X180838619Y-119839809D01*
X180933857Y-119887428D01*
X181029095Y-119887428D01*
X181171952Y-119839809D01*
X181743380Y-119268380D01*
X181743380Y-119887428D01*
X181838619Y-120982666D02*
X181791000Y-120887428D01*
X181695761Y-120792190D01*
X181552904Y-120649333D01*
X181505285Y-120554095D01*
X181505285Y-120458857D01*
X181743380Y-120506476D02*
X181695761Y-120411238D01*
X181600523Y-120316000D01*
X181410047Y-120268380D01*
X181076714Y-120268380D01*
X180886238Y-120316000D01*
X180791000Y-120411238D01*
X180743380Y-120506476D01*
X180743380Y-120696952D01*
X180791000Y-120792190D01*
X180886238Y-120887428D01*
X181076714Y-120935047D01*
X181410047Y-120935047D01*
X181600523Y-120887428D01*
X181695761Y-120792190D01*
X181743380Y-120696952D01*
X181743380Y-120506476D01*
X154964761Y-99206190D02*
X155107619Y-99349047D01*
X155107619Y-99682380D02*
X155060000Y-99730000D01*
X155012380Y-99825238D01*
X155012380Y-100063333D01*
X155060000Y-100158571D01*
X155107619Y-100206190D01*
X155202857Y-100253809D01*
X155298095Y-100253809D01*
X155440952Y-100206190D01*
X156012380Y-99634761D01*
X156012380Y-100253809D01*
X155345714Y-101110952D02*
X156012380Y-101110952D01*
X154964761Y-100872857D02*
X155679047Y-100634761D01*
X155679047Y-101253809D01*
X155012380Y-102110952D02*
X155012380Y-101634761D01*
X155488571Y-101587142D01*
X155440952Y-101634761D01*
X155393333Y-101730000D01*
X155393333Y-101968095D01*
X155440952Y-102063333D01*
X155488571Y-102110952D01*
X155583809Y-102158571D01*
X155821904Y-102158571D01*
X155917142Y-102110952D01*
X155964761Y-102063333D01*
X156012380Y-101968095D01*
X156012380Y-101730000D01*
X155964761Y-101634761D01*
X155917142Y-101587142D01*
D11*
%TO.C,R3*%
X178789000Y-127227064D02*
X178789000Y-126772936D01*
X177319000Y-127227064D02*
X177319000Y-126772936D01*
%TO.C,R2*%
X171931000Y-127227064D02*
X171931000Y-126772936D01*
X170461000Y-127227064D02*
X170461000Y-126772936D01*
%TO.C,C1*%
X145765000Y-83738748D02*
X145765000Y-84261252D01*
X147235000Y-83738748D02*
X147235000Y-84261252D01*
%TO.C,C2*%
X163738748Y-112735000D02*
X164261252Y-112735000D01*
X163738748Y-111265000D02*
X164261252Y-111265000D01*
%TO.C,C3*%
X145765000Y-104238748D02*
X145765000Y-104761252D01*
X147235000Y-104238748D02*
X147235000Y-104761252D01*
%TO.C,C4*%
X155765000Y-78738748D02*
X155765000Y-79261252D01*
X157235000Y-78738748D02*
X157235000Y-79261252D01*
%TO.C,C5*%
X148288748Y-51789000D02*
X148811252Y-51789000D01*
X148288748Y-50319000D02*
X148811252Y-50319000D01*
%TO.C,C6*%
X169265000Y-49688748D02*
X169265000Y-50211252D01*
X170735000Y-49688748D02*
X170735000Y-50211252D01*
%TO.C,R1*%
X167235000Y-50227064D02*
X167235000Y-49772936D01*
X165765000Y-50227064D02*
X165765000Y-49772936D01*
D10*
%TO.C,U3*%
X147680000Y-103798000D02*
X147780000Y-103798000D01*
X154505000Y-103798000D02*
X154480000Y-103798000D01*
X154505000Y-99148000D02*
X154480000Y-99148000D01*
X147680000Y-98073000D02*
X147680000Y-103798000D01*
X154505000Y-99148000D02*
X154505000Y-103798000D01*
%TO.C,R3*%
X178220666Y-124912380D02*
X178554000Y-124436190D01*
X178792095Y-124912380D02*
X178792095Y-123912380D01*
X178411142Y-123912380D01*
X178315904Y-123960000D01*
X178268285Y-124007619D01*
X178220666Y-124102857D01*
X178220666Y-124245714D01*
X178268285Y-124340952D01*
X178315904Y-124388571D01*
X178411142Y-124436190D01*
X178792095Y-124436190D01*
X177887333Y-123912380D02*
X177268285Y-123912380D01*
X177601619Y-124293333D01*
X177458761Y-124293333D01*
X177363523Y-124340952D01*
X177315904Y-124388571D01*
X177268285Y-124483809D01*
X177268285Y-124721904D01*
X177315904Y-124817142D01*
X177363523Y-124864761D01*
X177458761Y-124912380D01*
X177744476Y-124912380D01*
X177839714Y-124864761D01*
X177887333Y-124817142D01*
%TO.C,R2*%
X171386666Y-124846380D02*
X171720000Y-124370190D01*
X171958095Y-124846380D02*
X171958095Y-123846380D01*
X171577142Y-123846380D01*
X171481904Y-123894000D01*
X171434285Y-123941619D01*
X171386666Y-124036857D01*
X171386666Y-124179714D01*
X171434285Y-124274952D01*
X171481904Y-124322571D01*
X171577142Y-124370190D01*
X171958095Y-124370190D01*
X171005714Y-123941619D02*
X170958095Y-123894000D01*
X170862857Y-123846380D01*
X170624761Y-123846380D01*
X170529523Y-123894000D01*
X170481904Y-123941619D01*
X170434285Y-124036857D01*
X170434285Y-124132095D01*
X170481904Y-124274952D01*
X171053333Y-124846380D01*
X170434285Y-124846380D01*
%TO.C,C1*%
X148707142Y-83873333D02*
X148754761Y-83825714D01*
X148802380Y-83682857D01*
X148802380Y-83587619D01*
X148754761Y-83444761D01*
X148659523Y-83349523D01*
X148564285Y-83301904D01*
X148373809Y-83254285D01*
X148230952Y-83254285D01*
X148040476Y-83301904D01*
X147945238Y-83349523D01*
X147850000Y-83444761D01*
X147802380Y-83587619D01*
X147802380Y-83682857D01*
X147850000Y-83825714D01*
X147897619Y-83873333D01*
X148802380Y-84825714D02*
X148802380Y-84254285D01*
X148802380Y-84540000D02*
X147802380Y-84540000D01*
X147945238Y-84444761D01*
X148040476Y-84349523D01*
X148088095Y-84254285D01*
%TO.C,C2*%
X162452142Y-111198333D02*
X162499761Y-111150714D01*
X162547380Y-111007857D01*
X162547380Y-110912619D01*
X162499761Y-110769761D01*
X162404523Y-110674523D01*
X162309285Y-110626904D01*
X162118809Y-110579285D01*
X161975952Y-110579285D01*
X161785476Y-110626904D01*
X161690238Y-110674523D01*
X161595000Y-110769761D01*
X161547380Y-110912619D01*
X161547380Y-111007857D01*
X161595000Y-111150714D01*
X161642619Y-111198333D01*
X161642619Y-111579285D02*
X161595000Y-111626904D01*
X161547380Y-111722142D01*
X161547380Y-111960238D01*
X161595000Y-112055476D01*
X161642619Y-112103095D01*
X161737857Y-112150714D01*
X161833095Y-112150714D01*
X161975952Y-112103095D01*
X162547380Y-111531666D01*
X162547380Y-112150714D01*
%TO.C,C3*%
X146967142Y-101703333D02*
X147014761Y-101655714D01*
X147062380Y-101512857D01*
X147062380Y-101417619D01*
X147014761Y-101274761D01*
X146919523Y-101179523D01*
X146824285Y-101131904D01*
X146633809Y-101084285D01*
X146490952Y-101084285D01*
X146300476Y-101131904D01*
X146205238Y-101179523D01*
X146110000Y-101274761D01*
X146062380Y-101417619D01*
X146062380Y-101512857D01*
X146110000Y-101655714D01*
X146157619Y-101703333D01*
X146062380Y-102036666D02*
X146062380Y-102655714D01*
X146443333Y-102322380D01*
X146443333Y-102465238D01*
X146490952Y-102560476D01*
X146538571Y-102608095D01*
X146633809Y-102655714D01*
X146871904Y-102655714D01*
X146967142Y-102608095D01*
X147014761Y-102560476D01*
X147062380Y-102465238D01*
X147062380Y-102179523D01*
X147014761Y-102084285D01*
X146967142Y-102036666D01*
%TO.C,C4*%
X155157142Y-78963333D02*
X155204761Y-78915714D01*
X155252380Y-78772857D01*
X155252380Y-78677619D01*
X155204761Y-78534761D01*
X155109523Y-78439523D01*
X155014285Y-78391904D01*
X154823809Y-78344285D01*
X154680952Y-78344285D01*
X154490476Y-78391904D01*
X154395238Y-78439523D01*
X154300000Y-78534761D01*
X154252380Y-78677619D01*
X154252380Y-78772857D01*
X154300000Y-78915714D01*
X154347619Y-78963333D01*
X154585714Y-79820476D02*
X155252380Y-79820476D01*
X154204761Y-79582380D02*
X154919047Y-79344285D01*
X154919047Y-79963333D01*
%TO.C,C5*%
X146407142Y-51141333D02*
X146454761Y-51093714D01*
X146502380Y-50950857D01*
X146502380Y-50855619D01*
X146454761Y-50712761D01*
X146359523Y-50617523D01*
X146264285Y-50569904D01*
X146073809Y-50522285D01*
X145930952Y-50522285D01*
X145740476Y-50569904D01*
X145645238Y-50617523D01*
X145550000Y-50712761D01*
X145502380Y-50855619D01*
X145502380Y-50950857D01*
X145550000Y-51093714D01*
X145597619Y-51141333D01*
X145502380Y-52046095D02*
X145502380Y-51569904D01*
X145978571Y-51522285D01*
X145930952Y-51569904D01*
X145883333Y-51665142D01*
X145883333Y-51903238D01*
X145930952Y-51998476D01*
X145978571Y-52046095D01*
X146073809Y-52093714D01*
X146311904Y-52093714D01*
X146407142Y-52046095D01*
X146454761Y-51998476D01*
X146502380Y-51903238D01*
X146502380Y-51665142D01*
X146454761Y-51569904D01*
X146407142Y-51522285D01*
%TO.C,C6*%
X170357142Y-47333333D02*
X170404761Y-47285714D01*
X170452380Y-47142857D01*
X170452380Y-47047619D01*
X170404761Y-46904761D01*
X170309523Y-46809523D01*
X170214285Y-46761904D01*
X170023809Y-46714285D01*
X169880952Y-46714285D01*
X169690476Y-46761904D01*
X169595238Y-46809523D01*
X169500000Y-46904761D01*
X169452380Y-47047619D01*
X169452380Y-47142857D01*
X169500000Y-47285714D01*
X169547619Y-47333333D01*
X169452380Y-48190476D02*
X169452380Y-48000000D01*
X169500000Y-47904761D01*
X169547619Y-47857142D01*
X169690476Y-47761904D01*
X169880952Y-47714285D01*
X170261904Y-47714285D01*
X170357142Y-47761904D01*
X170404761Y-47809523D01*
X170452380Y-47904761D01*
X170452380Y-48095238D01*
X170404761Y-48190476D01*
X170357142Y-48238095D01*
X170261904Y-48285714D01*
X170023809Y-48285714D01*
X169928571Y-48238095D01*
X169880952Y-48190476D01*
X169833333Y-48095238D01*
X169833333Y-47904761D01*
X169880952Y-47809523D01*
X169928571Y-47761904D01*
X170023809Y-47714285D01*
%TO.C,R1*%
X166952380Y-47333333D02*
X166476190Y-47000000D01*
X166952380Y-46761904D02*
X165952380Y-46761904D01*
X165952380Y-47142857D01*
X166000000Y-47238095D01*
X166047619Y-47285714D01*
X166142857Y-47333333D01*
X166285714Y-47333333D01*
X166380952Y-47285714D01*
X166428571Y-47238095D01*
X166476190Y-47142857D01*
X166476190Y-46761904D01*
X166952380Y-48285714D02*
X166952380Y-47714285D01*
X166952380Y-48000000D02*
X165952380Y-48000000D01*
X166095238Y-47904761D01*
X166190476Y-47809523D01*
X166238095Y-47714285D01*
%TO.C,U3*%
X146342380Y-98258095D02*
X147151904Y-98258095D01*
X147247142Y-98305714D01*
X147294761Y-98353333D01*
X147342380Y-98448571D01*
X147342380Y-98639047D01*
X147294761Y-98734285D01*
X147247142Y-98781904D01*
X147151904Y-98829523D01*
X146342380Y-98829523D01*
X146342380Y-99210476D02*
X146342380Y-99829523D01*
X146723333Y-99496190D01*
X146723333Y-99639047D01*
X146770952Y-99734285D01*
X146818571Y-99781904D01*
X146913809Y-99829523D01*
X147151904Y-99829523D01*
X147247142Y-99781904D01*
X147294761Y-99734285D01*
X147342380Y-99639047D01*
X147342380Y-99353333D01*
X147294761Y-99258095D01*
X147247142Y-99210476D01*
%TD*%
M02*
