%TF.GenerationSoftware,KiCad,Pcbnew,(5.1.10)-1*%
%TF.CreationDate,2021-10-22T16:43:04-07:00*%
%TF.ProjectId,z80_ssd,7a38305f-7373-4642-9e6b-696361645f70,rev?*%
%TF.SameCoordinates,Original*%
%TF.FileFunction,Soldermask,Top*%
%TF.FilePolarity,Negative*%
%FSLAX46Y46*%
G04 Gerber Fmt 4.6, Leading zero omitted, Abs format (unit mm)*
G04 Created by KiCad (PCBNEW (5.1.10)-1) date 2021-10-22 16:43:04*
%MOMM*%
%LPD*%
G01*
G04 APERTURE LIST*
%ADD10C,1.800000*%
%ADD11R,1.800000X1.800000*%
%ADD12C,4.400000*%
%ADD13O,1.600000X1.600000*%
%ADD14R,1.600000X1.600000*%
%ADD15O,1.700000X1.700000*%
%ADD16R,1.700000X1.700000*%
%ADD17C,2.000000*%
G04 APERTURE END LIST*
D10*
%TO.C,D2*%
X180594000Y-132842000D03*
D11*
X178054000Y-132842000D03*
%TD*%
D12*
%TO.C,H2*%
X165100000Y-133858000D03*
%TD*%
%TO.C,H1*%
X144780000Y-133858000D03*
%TD*%
D10*
%TO.C,D1*%
X173482000Y-132842000D03*
D11*
X170942000Y-132842000D03*
%TD*%
D13*
%TO.C,U1*%
X177740000Y-57404000D03*
X162500000Y-105664000D03*
X177740000Y-59944000D03*
X162500000Y-103124000D03*
X177740000Y-62484000D03*
X162500000Y-100584000D03*
X177740000Y-65024000D03*
X162500000Y-98044000D03*
X177740000Y-67564000D03*
X162500000Y-95504000D03*
X177740000Y-70104000D03*
X162500000Y-92964000D03*
X177740000Y-72644000D03*
X162500000Y-90424000D03*
X177740000Y-75184000D03*
X162500000Y-87884000D03*
X177740000Y-77724000D03*
X162500000Y-85344000D03*
X177740000Y-80264000D03*
X162500000Y-82804000D03*
X177740000Y-82804000D03*
X162500000Y-80264000D03*
X177740000Y-85344000D03*
X162500000Y-77724000D03*
X177740000Y-87884000D03*
X162500000Y-75184000D03*
X177740000Y-90424000D03*
X162500000Y-72644000D03*
X177740000Y-92964000D03*
X162500000Y-70104000D03*
X177740000Y-95504000D03*
X162500000Y-67564000D03*
X177740000Y-98044000D03*
X162500000Y-65024000D03*
X177740000Y-100584000D03*
X162500000Y-62484000D03*
X177740000Y-103124000D03*
X162500000Y-59944000D03*
X177740000Y-105664000D03*
D14*
X162500000Y-57404000D03*
%TD*%
D13*
%TO.C,U2*%
X159004000Y-57404000D03*
X143764000Y-105664000D03*
X159004000Y-59944000D03*
X143764000Y-103124000D03*
X159004000Y-62484000D03*
X143764000Y-100584000D03*
X159004000Y-65024000D03*
X143764000Y-98044000D03*
X159004000Y-67564000D03*
X143764000Y-95504000D03*
X159004000Y-70104000D03*
X143764000Y-92964000D03*
X159004000Y-72644000D03*
X143764000Y-90424000D03*
X159004000Y-75184000D03*
X143764000Y-87884000D03*
X159004000Y-77724000D03*
X143764000Y-85344000D03*
X159004000Y-80264000D03*
X143764000Y-82804000D03*
X159004000Y-82804000D03*
X143764000Y-80264000D03*
X159004000Y-85344000D03*
X143764000Y-77724000D03*
X159004000Y-87884000D03*
X143764000Y-75184000D03*
X159004000Y-90424000D03*
X143764000Y-72644000D03*
X159004000Y-92964000D03*
X143764000Y-70104000D03*
X159004000Y-95504000D03*
X143764000Y-67564000D03*
X159004000Y-98044000D03*
X143764000Y-65024000D03*
X159004000Y-100584000D03*
X143764000Y-62484000D03*
X159004000Y-103124000D03*
X143764000Y-59944000D03*
X159004000Y-105664000D03*
D14*
X143764000Y-57404000D03*
%TD*%
D15*
%TO.C,J2*%
X144680000Y-115000000D03*
X147220000Y-115000000D03*
X149760000Y-115000000D03*
X152300000Y-115000000D03*
X154840000Y-115000000D03*
X157380000Y-115000000D03*
X159920000Y-115000000D03*
X162460000Y-115000000D03*
D16*
X165000000Y-115000000D03*
%TD*%
D15*
%TO.C,J3*%
X157700000Y-110500000D03*
X155160000Y-110500000D03*
X152620000Y-110500000D03*
X150080000Y-110500000D03*
X147540000Y-110500000D03*
D16*
X145000000Y-110500000D03*
%TD*%
D15*
%TO.C,JP1*%
X171704000Y-110363000D03*
D16*
X174244000Y-110363000D03*
%TD*%
D15*
%TO.C,J4*%
X181400000Y-75380000D03*
X181400000Y-72840000D03*
X181400000Y-70300000D03*
X181400000Y-67760000D03*
X181400000Y-65220000D03*
X181400000Y-62680000D03*
X181400000Y-60140000D03*
D16*
X181400000Y-57600000D03*
%TD*%
D17*
%TO.C,SW1*%
X181000000Y-48500000D03*
X181000000Y-53000000D03*
X174500000Y-48500000D03*
X174500000Y-53000000D03*
%TD*%
D15*
%TO.C,J1*%
X157080000Y-48500000D03*
X154540000Y-48500000D03*
X152000000Y-48500000D03*
X149460000Y-48500000D03*
X146920000Y-48500000D03*
D16*
X144380000Y-48500000D03*
%TD*%
M02*
