M48
; DRILL file {KiCad (5.1.10)-1} date 10/22/21 16:43:14
; FORMAT={-:-/ absolute / inch / decimal}
; #@! TF.CreationDate,2021-10-22T16:43:14-07:00
; #@! TF.GenerationSoftware,Kicad,Pcbnew,(5.1.10)-1
; #@! TF.FileFunction,Plated,1,2,PTH
FMAT,2
INCH
T1C0.0157
T2C0.0315
T3C0.0354
T4C0.0394
T5C0.0433
T6C0.0866
%
G90
G05
T1
X5.59Y-4.42
X5.7427Y-3.9559
X5.7638Y-2.437
X5.7717Y-2.315
X5.7756Y-2.5591
X5.8833Y-3.9944
X5.8858Y-3.4843
X5.8858Y-3.7992
X5.9163Y-4.0157
X5.9449Y-2.5591
X5.9449Y-4.0551
X5.9528Y-2.315
X5.9567Y-2.437
X6.0066Y-4.0505
X6.0438Y-4.036
X6.0652Y-3.8211
X6.0805Y-2.86
X6.0832Y-4.0359
X6.5581Y-2.4917
X6.5585Y-2.6059
X6.562Y-2.4311
X6.58Y-4.8
X6.6005Y-2.7051
T2
X5.66Y-2.26
X5.66Y-2.36
X5.66Y-2.46
X5.66Y-2.56
X5.66Y-2.66
X5.66Y-2.76
X5.66Y-2.86
X5.66Y-2.96
X5.66Y-3.06
X5.66Y-3.16
X5.66Y-3.26
X5.66Y-3.36
X5.66Y-3.46
X5.66Y-3.56
X5.66Y-3.66
X5.66Y-3.76
X5.66Y-3.86
X5.66Y-3.96
X5.66Y-4.06
X5.66Y-4.16
X5.7672Y-4.2313
X6.26Y-2.26
X6.26Y-2.36
X6.26Y-2.46
X6.26Y-2.56
X6.26Y-2.66
X6.26Y-2.76
X6.26Y-2.86
X6.26Y-2.96
X6.26Y-3.06
X6.26Y-3.16
X6.26Y-3.26
X6.26Y-3.36
X6.26Y-3.46
X6.26Y-3.56
X6.26Y-3.66
X6.26Y-3.76
X6.26Y-3.86
X6.26Y-3.96
X6.26Y-4.06
X6.26Y-4.16
X6.28Y-2.0
X6.3976Y-2.26
X6.3976Y-2.36
X6.3976Y-2.46
X6.3976Y-2.56
X6.3976Y-2.66
X6.3976Y-2.76
X6.3976Y-2.86
X6.3976Y-2.96
X6.3976Y-3.06
X6.3976Y-3.16
X6.3976Y-3.26
X6.3976Y-3.36
X6.3976Y-3.46
X6.3976Y-3.56
X6.3976Y-3.66
X6.3976Y-3.76
X6.3976Y-3.86
X6.3976Y-3.96
X6.3976Y-4.06
X6.3976Y-4.16
X6.4754Y-3.0108
X6.4961Y-3.189
X6.5157Y-4.2313
X6.5669Y-3.2205
X6.9976Y-2.26
X6.9976Y-2.36
X6.9976Y-2.46
X6.9976Y-2.56
X6.9976Y-2.66
X6.9976Y-2.76
X6.9976Y-2.86
X6.9976Y-2.96
X6.9976Y-3.06
X6.9976Y-3.16
X6.9976Y-3.26
X6.9976Y-3.36
X6.9976Y-3.46
X6.9976Y-3.56
X6.9976Y-3.66
X6.9976Y-3.76
X6.9976Y-3.86
X6.9976Y-3.96
X6.9976Y-4.06
X6.9976Y-4.16
T3
X6.73Y-5.23
X6.83Y-5.23
X7.01Y-5.23
X7.11Y-5.23
T4
X5.6843Y-1.9094
X5.6961Y-4.5276
X5.7087Y-4.3504
X5.7843Y-1.9094
X5.7961Y-4.5276
X5.8087Y-4.3504
X5.8843Y-1.9094
X5.8961Y-4.5276
X5.9087Y-4.3504
X5.9843Y-1.9094
X5.9961Y-4.5276
X6.0087Y-4.3504
X6.0843Y-1.9094
X6.0961Y-4.5276
X6.1087Y-4.3504
X6.1843Y-1.9094
X6.1961Y-4.5276
X6.2087Y-4.3504
X6.2961Y-4.5276
X6.3961Y-4.5276
X6.4961Y-4.5276
X6.76Y-4.345
X6.86Y-4.345
X7.1417Y-2.2677
X7.1417Y-2.3677
X7.1417Y-2.4677
X7.1417Y-2.5677
X7.1417Y-2.6677
X7.1417Y-2.7677
X7.1417Y-2.8677
X7.1417Y-2.9677
T5
X6.8701Y-1.9094
X6.8701Y-2.0866
X7.126Y-1.9094
X7.126Y-2.0866
T6
X5.7Y-5.27
X6.5Y-5.27
T0
M30
