%TF.GenerationSoftware,KiCad,Pcbnew,(5.1.10)-1*%
%TF.CreationDate,2021-10-22T16:43:04-07:00*%
%TF.ProjectId,z80_ssd,7a38305f-7373-4642-9e6b-696361645f70,rev?*%
%TF.SameCoordinates,Original*%
%TF.FileFunction,Copper,L2,Bot*%
%TF.FilePolarity,Positive*%
%FSLAX46Y46*%
G04 Gerber Fmt 4.6, Leading zero omitted, Abs format (unit mm)*
G04 Created by KiCad (PCBNEW (5.1.10)-1) date 2021-10-22 16:43:04*
%MOMM*%
%LPD*%
G01*
G04 APERTURE LIST*
%TA.AperFunction,ComponentPad*%
%ADD10C,1.800000*%
%TD*%
%TA.AperFunction,ComponentPad*%
%ADD11R,1.800000X1.800000*%
%TD*%
%TA.AperFunction,ComponentPad*%
%ADD12C,4.400000*%
%TD*%
%TA.AperFunction,ComponentPad*%
%ADD13O,1.600000X1.600000*%
%TD*%
%TA.AperFunction,ComponentPad*%
%ADD14R,1.600000X1.600000*%
%TD*%
%TA.AperFunction,SMDPad,CuDef*%
%ADD15R,0.400000X1.000000*%
%TD*%
%TA.AperFunction,ComponentPad*%
%ADD16O,1.700000X1.700000*%
%TD*%
%TA.AperFunction,ComponentPad*%
%ADD17R,1.700000X1.700000*%
%TD*%
%TA.AperFunction,ComponentPad*%
%ADD18C,2.000000*%
%TD*%
%TA.AperFunction,ViaPad*%
%ADD19C,1.600000*%
%TD*%
%TA.AperFunction,ViaPad*%
%ADD20C,0.800000*%
%TD*%
%TA.AperFunction,Conductor*%
%ADD21C,0.500000*%
%TD*%
%TA.AperFunction,Conductor*%
%ADD22C,0.250000*%
%TD*%
G04 APERTURE END LIST*
%TO.P,R3,2*%
%TO.N,/MCU_RE0*%
%TA.AperFunction,SMDPad,CuDef*%
G36*
G01*
X178504001Y-126600000D02*
X177603999Y-126600000D01*
G75*
G02*
X177354000Y-126350001I0J249999D01*
G01*
X177354000Y-125824999D01*
G75*
G02*
X177603999Y-125575000I249999J0D01*
G01*
X178504001Y-125575000D01*
G75*
G02*
X178754000Y-125824999I0J-249999D01*
G01*
X178754000Y-126350001D01*
G75*
G02*
X178504001Y-126600000I-249999J0D01*
G01*
G37*
%TD.AperFunction*%
%TO.P,R3,1*%
%TO.N,Net-(D2-Pad1)*%
%TA.AperFunction,SMDPad,CuDef*%
G36*
G01*
X178504001Y-128425000D02*
X177603999Y-128425000D01*
G75*
G02*
X177354000Y-128175001I0J249999D01*
G01*
X177354000Y-127649999D01*
G75*
G02*
X177603999Y-127400000I249999J0D01*
G01*
X178504001Y-127400000D01*
G75*
G02*
X178754000Y-127649999I0J-249999D01*
G01*
X178754000Y-128175001D01*
G75*
G02*
X178504001Y-128425000I-249999J0D01*
G01*
G37*
%TD.AperFunction*%
%TD*%
D10*
%TO.P,D2,2*%
%TO.N,+5V*%
X180594000Y-132842000D03*
D11*
%TO.P,D2,1*%
%TO.N,Net-(D2-Pad1)*%
X178054000Y-132842000D03*
%TD*%
D12*
%TO.P,H2,1*%
%TO.N,GND*%
X165100000Y-133858000D03*
%TD*%
%TO.P,H1,1*%
%TO.N,GND*%
X144780000Y-133858000D03*
%TD*%
D10*
%TO.P,D1,2*%
%TO.N,+5V*%
X173482000Y-132842000D03*
D11*
%TO.P,D1,1*%
%TO.N,Net-(D1-Pad1)*%
X170942000Y-132842000D03*
%TD*%
%TO.P,R2,2*%
%TO.N,/SD_CS#*%
%TA.AperFunction,SMDPad,CuDef*%
G36*
G01*
X171646001Y-126600000D02*
X170745999Y-126600000D01*
G75*
G02*
X170496000Y-126350001I0J249999D01*
G01*
X170496000Y-125824999D01*
G75*
G02*
X170745999Y-125575000I249999J0D01*
G01*
X171646001Y-125575000D01*
G75*
G02*
X171896000Y-125824999I0J-249999D01*
G01*
X171896000Y-126350001D01*
G75*
G02*
X171646001Y-126600000I-249999J0D01*
G01*
G37*
%TD.AperFunction*%
%TO.P,R2,1*%
%TO.N,Net-(D1-Pad1)*%
%TA.AperFunction,SMDPad,CuDef*%
G36*
G01*
X171646001Y-128425000D02*
X170745999Y-128425000D01*
G75*
G02*
X170496000Y-128175001I0J249999D01*
G01*
X170496000Y-127649999D01*
G75*
G02*
X170745999Y-127400000I249999J0D01*
G01*
X171646001Y-127400000D01*
G75*
G02*
X171896000Y-127649999I0J-249999D01*
G01*
X171896000Y-128175001D01*
G75*
G02*
X171646001Y-128425000I-249999J0D01*
G01*
G37*
%TD.AperFunction*%
%TD*%
%TO.P,C1,2*%
%TO.N,GND*%
%TA.AperFunction,SMDPad,CuDef*%
G36*
G01*
X146025000Y-84450000D02*
X146975000Y-84450000D01*
G75*
G02*
X147225000Y-84700000I0J-250000D01*
G01*
X147225000Y-85200000D01*
G75*
G02*
X146975000Y-85450000I-250000J0D01*
G01*
X146025000Y-85450000D01*
G75*
G02*
X145775000Y-85200000I0J250000D01*
G01*
X145775000Y-84700000D01*
G75*
G02*
X146025000Y-84450000I250000J0D01*
G01*
G37*
%TD.AperFunction*%
%TO.P,C1,1*%
%TO.N,+5V*%
%TA.AperFunction,SMDPad,CuDef*%
G36*
G01*
X146025000Y-82550000D02*
X146975000Y-82550000D01*
G75*
G02*
X147225000Y-82800000I0J-250000D01*
G01*
X147225000Y-83300000D01*
G75*
G02*
X146975000Y-83550000I-250000J0D01*
G01*
X146025000Y-83550000D01*
G75*
G02*
X145775000Y-83300000I0J250000D01*
G01*
X145775000Y-82800000D01*
G75*
G02*
X146025000Y-82550000I250000J0D01*
G01*
G37*
%TD.AperFunction*%
%TD*%
%TO.P,C2,2*%
%TO.N,GND*%
%TA.AperFunction,SMDPad,CuDef*%
G36*
G01*
X164450000Y-112475000D02*
X164450000Y-111525000D01*
G75*
G02*
X164700000Y-111275000I250000J0D01*
G01*
X165200000Y-111275000D01*
G75*
G02*
X165450000Y-111525000I0J-250000D01*
G01*
X165450000Y-112475000D01*
G75*
G02*
X165200000Y-112725000I-250000J0D01*
G01*
X164700000Y-112725000D01*
G75*
G02*
X164450000Y-112475000I0J250000D01*
G01*
G37*
%TD.AperFunction*%
%TO.P,C2,1*%
%TO.N,+5V*%
%TA.AperFunction,SMDPad,CuDef*%
G36*
G01*
X162550000Y-112475000D02*
X162550000Y-111525000D01*
G75*
G02*
X162800000Y-111275000I250000J0D01*
G01*
X163300000Y-111275000D01*
G75*
G02*
X163550000Y-111525000I0J-250000D01*
G01*
X163550000Y-112475000D01*
G75*
G02*
X163300000Y-112725000I-250000J0D01*
G01*
X162800000Y-112725000D01*
G75*
G02*
X162550000Y-112475000I0J250000D01*
G01*
G37*
%TD.AperFunction*%
%TD*%
%TO.P,C3,2*%
%TO.N,GND*%
%TA.AperFunction,SMDPad,CuDef*%
G36*
G01*
X146025000Y-104950000D02*
X146975000Y-104950000D01*
G75*
G02*
X147225000Y-105200000I0J-250000D01*
G01*
X147225000Y-105700000D01*
G75*
G02*
X146975000Y-105950000I-250000J0D01*
G01*
X146025000Y-105950000D01*
G75*
G02*
X145775000Y-105700000I0J250000D01*
G01*
X145775000Y-105200000D01*
G75*
G02*
X146025000Y-104950000I250000J0D01*
G01*
G37*
%TD.AperFunction*%
%TO.P,C3,1*%
%TO.N,+5V*%
%TA.AperFunction,SMDPad,CuDef*%
G36*
G01*
X146025000Y-103050000D02*
X146975000Y-103050000D01*
G75*
G02*
X147225000Y-103300000I0J-250000D01*
G01*
X147225000Y-103800000D01*
G75*
G02*
X146975000Y-104050000I-250000J0D01*
G01*
X146025000Y-104050000D01*
G75*
G02*
X145775000Y-103800000I0J250000D01*
G01*
X145775000Y-103300000D01*
G75*
G02*
X146025000Y-103050000I250000J0D01*
G01*
G37*
%TD.AperFunction*%
%TD*%
%TO.P,C4,2*%
%TO.N,GND*%
%TA.AperFunction,SMDPad,CuDef*%
G36*
G01*
X156025000Y-79450000D02*
X156975000Y-79450000D01*
G75*
G02*
X157225000Y-79700000I0J-250000D01*
G01*
X157225000Y-80200000D01*
G75*
G02*
X156975000Y-80450000I-250000J0D01*
G01*
X156025000Y-80450000D01*
G75*
G02*
X155775000Y-80200000I0J250000D01*
G01*
X155775000Y-79700000D01*
G75*
G02*
X156025000Y-79450000I250000J0D01*
G01*
G37*
%TD.AperFunction*%
%TO.P,C4,1*%
%TO.N,+5V*%
%TA.AperFunction,SMDPad,CuDef*%
G36*
G01*
X156025000Y-77550000D02*
X156975000Y-77550000D01*
G75*
G02*
X157225000Y-77800000I0J-250000D01*
G01*
X157225000Y-78300000D01*
G75*
G02*
X156975000Y-78550000I-250000J0D01*
G01*
X156025000Y-78550000D01*
G75*
G02*
X155775000Y-78300000I0J250000D01*
G01*
X155775000Y-77800000D01*
G75*
G02*
X156025000Y-77550000I250000J0D01*
G01*
G37*
%TD.AperFunction*%
%TD*%
%TO.P,C5,2*%
%TO.N,GND*%
%TA.AperFunction,SMDPad,CuDef*%
G36*
G01*
X149000000Y-51529000D02*
X149000000Y-50579000D01*
G75*
G02*
X149250000Y-50329000I250000J0D01*
G01*
X149750000Y-50329000D01*
G75*
G02*
X150000000Y-50579000I0J-250000D01*
G01*
X150000000Y-51529000D01*
G75*
G02*
X149750000Y-51779000I-250000J0D01*
G01*
X149250000Y-51779000D01*
G75*
G02*
X149000000Y-51529000I0J250000D01*
G01*
G37*
%TD.AperFunction*%
%TO.P,C5,1*%
%TO.N,+5V*%
%TA.AperFunction,SMDPad,CuDef*%
G36*
G01*
X147100000Y-51529000D02*
X147100000Y-50579000D01*
G75*
G02*
X147350000Y-50329000I250000J0D01*
G01*
X147850000Y-50329000D01*
G75*
G02*
X148100000Y-50579000I0J-250000D01*
G01*
X148100000Y-51529000D01*
G75*
G02*
X147850000Y-51779000I-250000J0D01*
G01*
X147350000Y-51779000D01*
G75*
G02*
X147100000Y-51529000I0J250000D01*
G01*
G37*
%TD.AperFunction*%
%TD*%
%TO.P,C6,2*%
%TO.N,GND*%
%TA.AperFunction,SMDPad,CuDef*%
G36*
G01*
X169525000Y-50400000D02*
X170475000Y-50400000D01*
G75*
G02*
X170725000Y-50650000I0J-250000D01*
G01*
X170725000Y-51150000D01*
G75*
G02*
X170475000Y-51400000I-250000J0D01*
G01*
X169525000Y-51400000D01*
G75*
G02*
X169275000Y-51150000I0J250000D01*
G01*
X169275000Y-50650000D01*
G75*
G02*
X169525000Y-50400000I250000J0D01*
G01*
G37*
%TD.AperFunction*%
%TO.P,C6,1*%
%TO.N,/MCLR#*%
%TA.AperFunction,SMDPad,CuDef*%
G36*
G01*
X169525000Y-48500000D02*
X170475000Y-48500000D01*
G75*
G02*
X170725000Y-48750000I0J-250000D01*
G01*
X170725000Y-49250000D01*
G75*
G02*
X170475000Y-49500000I-250000J0D01*
G01*
X169525000Y-49500000D01*
G75*
G02*
X169275000Y-49250000I0J250000D01*
G01*
X169275000Y-48750000D01*
G75*
G02*
X169525000Y-48500000I250000J0D01*
G01*
G37*
%TD.AperFunction*%
%TD*%
%TO.P,R1,2*%
%TO.N,/MCLR#*%
%TA.AperFunction,SMDPad,CuDef*%
G36*
G01*
X166950001Y-49600000D02*
X166049999Y-49600000D01*
G75*
G02*
X165800000Y-49350001I0J249999D01*
G01*
X165800000Y-48824999D01*
G75*
G02*
X166049999Y-48575000I249999J0D01*
G01*
X166950001Y-48575000D01*
G75*
G02*
X167200000Y-48824999I0J-249999D01*
G01*
X167200000Y-49350001D01*
G75*
G02*
X166950001Y-49600000I-249999J0D01*
G01*
G37*
%TD.AperFunction*%
%TO.P,R1,1*%
%TO.N,+5V*%
%TA.AperFunction,SMDPad,CuDef*%
G36*
G01*
X166950001Y-51425000D02*
X166049999Y-51425000D01*
G75*
G02*
X165800000Y-51175001I0J249999D01*
G01*
X165800000Y-50649999D01*
G75*
G02*
X166049999Y-50400000I249999J0D01*
G01*
X166950001Y-50400000D01*
G75*
G02*
X167200000Y-50649999I0J-249999D01*
G01*
X167200000Y-51175001D01*
G75*
G02*
X166950001Y-51425000I-249999J0D01*
G01*
G37*
%TD.AperFunction*%
%TD*%
D13*
%TO.P,U1,40*%
%TO.N,N/C*%
X177740000Y-57404000D03*
%TO.P,U1,20*%
%TO.N,/CPU_IORQ#*%
X162500000Y-105664000D03*
%TO.P,U1,39*%
%TO.N,N/C*%
X177740000Y-59944000D03*
%TO.P,U1,19*%
X162500000Y-103124000D03*
%TO.P,U1,38*%
X177740000Y-62484000D03*
%TO.P,U1,18*%
X162500000Y-100584000D03*
%TO.P,U1,37*%
%TO.N,/CPU_A7*%
X177740000Y-65024000D03*
%TO.P,U1,17*%
%TO.N,N/C*%
X162500000Y-98044000D03*
%TO.P,U1,36*%
%TO.N,/CPU_A6*%
X177740000Y-67564000D03*
%TO.P,U1,16*%
%TO.N,N/C*%
X162500000Y-95504000D03*
%TO.P,U1,35*%
%TO.N,/CPU_A5*%
X177740000Y-70104000D03*
%TO.P,U1,15*%
%TO.N,/CPU_D1*%
X162500000Y-92964000D03*
%TO.P,U1,34*%
%TO.N,/CPU_A4*%
X177740000Y-72644000D03*
%TO.P,U1,14*%
%TO.N,/CPU_D0*%
X162500000Y-90424000D03*
%TO.P,U1,33*%
%TO.N,/CPU_A3*%
X177740000Y-75184000D03*
%TO.P,U1,13*%
%TO.N,/CPU_D7*%
X162500000Y-87884000D03*
%TO.P,U1,32*%
%TO.N,/CPU_A2*%
X177740000Y-77724000D03*
%TO.P,U1,12*%
%TO.N,/CPU_D2*%
X162500000Y-85344000D03*
%TO.P,U1,31*%
%TO.N,/CPU_A1*%
X177740000Y-80264000D03*
%TO.P,U1,11*%
%TO.N,+5V*%
X162500000Y-82804000D03*
%TO.P,U1,30*%
%TO.N,/CPU_A0*%
X177740000Y-82804000D03*
%TO.P,U1,10*%
%TO.N,/CPU_D6*%
X162500000Y-80264000D03*
%TO.P,U1,29*%
%TO.N,GND*%
X177740000Y-85344000D03*
%TO.P,U1,9*%
%TO.N,/CPU_D5*%
X162500000Y-77724000D03*
%TO.P,U1,28*%
%TO.N,N/C*%
X177740000Y-87884000D03*
%TO.P,U1,8*%
%TO.N,/CPU_D3*%
X162500000Y-75184000D03*
%TO.P,U1,27*%
%TO.N,/CPU_M1#*%
X177740000Y-90424000D03*
%TO.P,U1,7*%
%TO.N,/CPU_D4*%
X162500000Y-72644000D03*
%TO.P,U1,26*%
%TO.N,/CPU_RESET#*%
X177740000Y-92964000D03*
%TO.P,U1,6*%
%TO.N,N/C*%
X162500000Y-70104000D03*
%TO.P,U1,25*%
X177740000Y-95504000D03*
%TO.P,U1,5*%
X162500000Y-67564000D03*
%TO.P,U1,24*%
%TO.N,/CPU_WAIT#*%
X177740000Y-98044000D03*
%TO.P,U1,4*%
%TO.N,N/C*%
X162500000Y-65024000D03*
%TO.P,U1,23*%
X177740000Y-100584000D03*
%TO.P,U1,3*%
X162500000Y-62484000D03*
%TO.P,U1,22*%
%TO.N,/CPU_WR#*%
X177740000Y-103124000D03*
%TO.P,U1,2*%
%TO.N,N/C*%
X162500000Y-59944000D03*
%TO.P,U1,21*%
%TO.N,/CPU_RD#*%
X177740000Y-105664000D03*
D14*
%TO.P,U1,1*%
%TO.N,N/C*%
X162500000Y-57404000D03*
%TD*%
D13*
%TO.P,U2,40*%
%TO.N,Net-(J1-Pad4)*%
X159004000Y-57404000D03*
%TO.P,U2,20*%
%TO.N,/MCU_D1*%
X143764000Y-105664000D03*
%TO.P,U2,39*%
%TO.N,/ICSP_PGC*%
X159004000Y-59944000D03*
%TO.P,U2,19*%
%TO.N,/MCU_D0*%
X143764000Y-103124000D03*
%TO.P,U2,38*%
%TO.N,/SD_CS#*%
X159004000Y-62484000D03*
%TO.P,U2,18*%
%TO.N,/SD_SCK*%
X143764000Y-100584000D03*
%TO.P,U2,37*%
%TO.N,/CPU_D_CE#*%
X159004000Y-65024000D03*
%TO.P,U2,17*%
%TO.N,/CPU_RD#*%
X143764000Y-98044000D03*
%TO.P,U2,36*%
%TO.N,/CPU_IORQ#*%
X159004000Y-67564000D03*
%TO.P,U2,16*%
%TO.N,/CPU_WR#*%
X143764000Y-95504000D03*
%TO.P,U2,35*%
%TO.N,/CPU_M1#*%
X159004000Y-70104000D03*
%TO.P,U2,15*%
%TO.N,/MCU_WAIT#*%
X143764000Y-92964000D03*
%TO.P,U2,34*%
%TO.N,/MCU_RB1*%
X159004000Y-72644000D03*
%TO.P,U2,14*%
%TO.N,/CPU_A6*%
X143764000Y-90424000D03*
%TO.P,U2,33*%
%TO.N,/CPU_RESET#*%
X159004000Y-75184000D03*
%TO.P,U2,13*%
%TO.N,/CPU_A7*%
X143764000Y-87884000D03*
%TO.P,U2,32*%
%TO.N,+5V*%
X159004000Y-77724000D03*
%TO.P,U2,12*%
%TO.N,GND*%
X143764000Y-85344000D03*
%TO.P,U2,31*%
X159004000Y-80264000D03*
%TO.P,U2,11*%
%TO.N,+5V*%
X143764000Y-82804000D03*
%TO.P,U2,30*%
%TO.N,/MCU_D7*%
X159004000Y-82804000D03*
%TO.P,U2,10*%
%TO.N,/MCU_RE2*%
X143764000Y-80264000D03*
%TO.P,U2,29*%
%TO.N,/MCU_D6*%
X159004000Y-85344000D03*
%TO.P,U2,9*%
%TO.N,/MCU_RE1*%
X143764000Y-77724000D03*
%TO.P,U2,28*%
%TO.N,/MCU_D5*%
X159004000Y-87884000D03*
%TO.P,U2,8*%
%TO.N,/MCU_RE0*%
X143764000Y-75184000D03*
%TO.P,U2,27*%
%TO.N,/MCU_D4*%
X159004000Y-90424000D03*
%TO.P,U2,7*%
%TO.N,/CPU_A5*%
X143764000Y-72644000D03*
%TO.P,U2,26*%
%TO.N,/UART_RX*%
X159004000Y-92964000D03*
%TO.P,U2,6*%
%TO.N,/CPU_A4*%
X143764000Y-70104000D03*
%TO.P,U2,25*%
%TO.N,/UART_TX*%
X159004000Y-95504000D03*
%TO.P,U2,5*%
%TO.N,/CPU_A3*%
X143764000Y-67564000D03*
%TO.P,U2,24*%
%TO.N,/SD_MOSI*%
X159004000Y-98044000D03*
%TO.P,U2,4*%
%TO.N,/CPU_A2*%
X143764000Y-65024000D03*
%TO.P,U2,23*%
%TO.N,/SD_MISO*%
X159004000Y-100584000D03*
%TO.P,U2,3*%
%TO.N,/CPU_A1*%
X143764000Y-62484000D03*
%TO.P,U2,22*%
%TO.N,/MCU_D3*%
X159004000Y-103124000D03*
%TO.P,U2,2*%
%TO.N,/CPU_A0*%
X143764000Y-59944000D03*
%TO.P,U2,21*%
%TO.N,/MCU_D2*%
X159004000Y-105664000D03*
D14*
%TO.P,U2,1*%
%TO.N,/MCLR#*%
X143764000Y-57404000D03*
%TD*%
D15*
%TO.P,U3,20*%
%TO.N,+5V*%
X148205000Y-104373000D03*
%TO.P,U3,19*%
%TO.N,/CPU_D_CE#*%
X148855000Y-104373000D03*
%TO.P,U3,18*%
%TO.N,/CPU_D0*%
X149505000Y-104373000D03*
%TO.P,U3,17*%
%TO.N,/CPU_D1*%
X150155000Y-104373000D03*
%TO.P,U3,16*%
%TO.N,/CPU_D2*%
X150805000Y-104373000D03*
%TO.P,U3,15*%
%TO.N,/CPU_D3*%
X151455000Y-104373000D03*
%TO.P,U3,14*%
%TO.N,/CPU_D4*%
X152105000Y-104373000D03*
%TO.P,U3,13*%
%TO.N,/CPU_D5*%
X152755000Y-104373000D03*
%TO.P,U3,12*%
%TO.N,/CPU_D6*%
X153405000Y-104373000D03*
%TO.P,U3,11*%
%TO.N,/CPU_D7*%
X154055000Y-104373000D03*
%TO.P,U3,10*%
%TO.N,GND*%
X154055000Y-98573000D03*
%TO.P,U3,9*%
%TO.N,/MCU_D7*%
X153405000Y-98573000D03*
%TO.P,U3,8*%
%TO.N,/MCU_D6*%
X152755000Y-98573000D03*
%TO.P,U3,7*%
%TO.N,/MCU_D5*%
X152105000Y-98573000D03*
%TO.P,U3,6*%
%TO.N,/MCU_D4*%
X151455000Y-98573000D03*
%TO.P,U3,5*%
%TO.N,/MCU_D3*%
X150805000Y-98573000D03*
%TO.P,U3,4*%
%TO.N,/MCU_D2*%
X150155000Y-98573000D03*
%TO.P,U3,3*%
%TO.N,/MCU_D1*%
X149505000Y-98573000D03*
%TO.P,U3,2*%
%TO.N,/MCU_D0*%
X148855000Y-98573000D03*
%TO.P,U3,1*%
%TO.N,/CPU_WR#*%
X148205000Y-98573000D03*
%TD*%
D16*
%TO.P,J2,9*%
%TO.N,/MCU_RE1*%
X144680000Y-115000000D03*
%TO.P,J2,8*%
%TO.N,/MCU_RE0*%
X147220000Y-115000000D03*
%TO.P,J2,7*%
%TO.N,/SD_CS#*%
X149760000Y-115000000D03*
%TO.P,J2,6*%
%TO.N,/SD_SCK*%
X152300000Y-115000000D03*
%TO.P,J2,5*%
%TO.N,/SD_MISO*%
X154840000Y-115000000D03*
%TO.P,J2,4*%
%TO.N,/SD_MOSI*%
X157380000Y-115000000D03*
%TO.P,J2,3*%
%TO.N,N/C*%
X159920000Y-115000000D03*
%TO.P,J2,2*%
%TO.N,+5V*%
X162460000Y-115000000D03*
D17*
%TO.P,J2,1*%
%TO.N,GND*%
X165000000Y-115000000D03*
%TD*%
D16*
%TO.P,J3,6*%
%TO.N,Net-(J3-Pad2)*%
X157700000Y-110500000D03*
%TO.P,J3,5*%
%TO.N,/UART_TX*%
X155160000Y-110500000D03*
%TO.P,J3,4*%
%TO.N,/UART_RX*%
X152620000Y-110500000D03*
%TO.P,J3,3*%
%TO.N,N/C*%
X150080000Y-110500000D03*
%TO.P,J3,2*%
%TO.N,Net-(J3-Pad2)*%
X147540000Y-110500000D03*
D17*
%TO.P,J3,1*%
%TO.N,GND*%
X145000000Y-110500000D03*
%TD*%
D16*
%TO.P,JP1,2*%
%TO.N,/MCU_WAIT#*%
X171704000Y-110363000D03*
D17*
%TO.P,JP1,1*%
%TO.N,/CPU_WAIT#*%
X174244000Y-110363000D03*
%TD*%
D16*
%TO.P,J4,8*%
%TO.N,+5V*%
X181400000Y-75380000D03*
%TO.P,J4,7*%
%TO.N,N/C*%
X181400000Y-72840000D03*
%TO.P,J4,6*%
X181400000Y-70300000D03*
%TO.P,J4,5*%
%TO.N,/MCU_RB1*%
X181400000Y-67760000D03*
%TO.P,J4,4*%
%TO.N,/MCU_RE2*%
X181400000Y-65220000D03*
%TO.P,J4,3*%
%TO.N,/MCU_RE1*%
X181400000Y-62680000D03*
%TO.P,J4,2*%
%TO.N,/MCU_RE0*%
X181400000Y-60140000D03*
D17*
%TO.P,J4,1*%
%TO.N,GND*%
X181400000Y-57600000D03*
%TD*%
D18*
%TO.P,SW1,1*%
%TO.N,/MCLR#*%
X181000000Y-48500000D03*
%TO.P,SW1,2*%
%TO.N,GND*%
X181000000Y-53000000D03*
%TO.P,SW1,1*%
%TO.N,/MCLR#*%
X174500000Y-48500000D03*
%TO.P,SW1,2*%
%TO.N,GND*%
X174500000Y-53000000D03*
%TD*%
D16*
%TO.P,J1,6*%
%TO.N,N/C*%
X157080000Y-48500000D03*
%TO.P,J1,5*%
%TO.N,/ICSP_PGC*%
X154540000Y-48500000D03*
%TO.P,J1,4*%
%TO.N,Net-(J1-Pad4)*%
X152000000Y-48500000D03*
%TO.P,J1,3*%
%TO.N,GND*%
X149460000Y-48500000D03*
%TO.P,J1,2*%
%TO.N,+5V*%
X146920000Y-48500000D03*
D17*
%TO.P,J1,1*%
%TO.N,/MCLR#*%
X144380000Y-48500000D03*
%TD*%
D19*
%TO.N,GND*%
X164999956Y-81000000D03*
D20*
X154055000Y-97055000D03*
D19*
X146485999Y-107474990D03*
%TO.N,+5V*%
X164473999Y-76473999D03*
X166800000Y-81800000D03*
X165500000Y-107474990D03*
X159512000Y-50800000D03*
D20*
%TO.N,/CPU_D_CE#*%
X149500000Y-96500000D03*
X149500000Y-88500000D03*
X149434686Y-101457862D03*
%TO.N,/CPU_D3*%
X151000000Y-103000000D03*
%TO.N,/CPU_D4*%
X150274990Y-102000000D03*
%TO.N,/CPU_D5*%
X152568793Y-102882084D03*
%TO.N,/CPU_D6*%
X153511605Y-102513714D03*
%TO.N,/CPU_D7*%
X154512660Y-102512660D03*
%TO.N,/SD_SCK*%
X145864011Y-100481118D03*
%TO.N,/CPU_A0*%
X166675165Y-61750155D03*
%TO.N,/CPU_A1*%
X166575021Y-63289237D03*
%TO.N,/CPU_A2*%
X166587010Y-66190402D03*
%TO.N,/CPU_A3*%
X167651956Y-68709637D03*
%TO.N,/MCU_RB1*%
X154444000Y-72644000D03*
%TO.N,/MCU_RE1*%
X146400000Y-61900000D03*
X151300002Y-61900000D03*
X167132000Y-121920000D03*
%TO.N,/MCU_RE0*%
X146600000Y-58800000D03*
X151200000Y-58800000D03*
X141986000Y-112268000D03*
%TO.N,/MCU_RE2*%
X146700000Y-65000000D03*
X151000000Y-65000000D03*
%TD*%
D21*
%TO.N,GND*%
X143764000Y-85344000D02*
X144656000Y-85344000D01*
X145050000Y-84950000D02*
X146500000Y-84950000D01*
X144656000Y-85344000D02*
X145050000Y-84950000D01*
X159004000Y-80264000D02*
X158264000Y-80264000D01*
X157950000Y-79950000D02*
X156500000Y-79950000D01*
X158264000Y-80264000D02*
X157950000Y-79950000D01*
X156500000Y-79950000D02*
X155050000Y-79950000D01*
X150050000Y-84950000D02*
X146500000Y-84950000D01*
X155050000Y-79950000D02*
X150050000Y-84950000D01*
X181000000Y-53000000D02*
X174500000Y-53000000D01*
D22*
X154055000Y-98573000D02*
X154055000Y-97055000D01*
D21*
X176940001Y-86143999D02*
X168593997Y-86143999D01*
X168593997Y-86143999D02*
X164999956Y-82549958D01*
X177740000Y-85344000D02*
X176940001Y-86143999D01*
X164999956Y-82549958D02*
X164999956Y-81000000D01*
X181400000Y-53400000D02*
X181000000Y-53000000D01*
X181400000Y-57600000D02*
X181400000Y-53400000D01*
X146500000Y-105450000D02*
X146500000Y-107460989D01*
X146500000Y-107460989D02*
X146485999Y-107474990D01*
X165000000Y-112050000D02*
X164950000Y-112000000D01*
X165000000Y-115000000D02*
X165000000Y-112050000D01*
X149500000Y-48540000D02*
X149460000Y-48500000D01*
X149500000Y-51054000D02*
X149500000Y-48540000D01*
X172974000Y-51474000D02*
X174500000Y-53000000D01*
X172400000Y-50900000D02*
X174500000Y-53000000D01*
X170000000Y-50900000D02*
X172400000Y-50900000D01*
%TO.N,+5V*%
X160254001Y-76473999D02*
X164473999Y-76473999D01*
X159004000Y-77724000D02*
X160254001Y-76473999D01*
X143764000Y-82804000D02*
X145304000Y-82804000D01*
X145550000Y-83050000D02*
X146500000Y-83050000D01*
X145304000Y-82804000D02*
X145550000Y-83050000D01*
X159004000Y-77724000D02*
X158276000Y-77724000D01*
X157950000Y-78050000D02*
X156500000Y-78050000D01*
X158276000Y-77724000D02*
X157950000Y-78050000D01*
X156500000Y-78050000D02*
X154450000Y-78050000D01*
X149450000Y-83050000D02*
X146500000Y-83050000D01*
X154450000Y-78050000D02*
X149450000Y-83050000D01*
D22*
X148205000Y-104373000D02*
X148205000Y-103705000D01*
X148050000Y-103550000D02*
X146500000Y-103550000D01*
X148205000Y-103705000D02*
X148050000Y-103550000D01*
D21*
X181400000Y-82600000D02*
X181400000Y-75380000D01*
X179945999Y-84054001D02*
X181400000Y-82600000D01*
X169054001Y-84054001D02*
X179945999Y-84054001D01*
X166800000Y-81800000D02*
X169054001Y-84054001D01*
D22*
X149139033Y-108139033D02*
X164835957Y-108139033D01*
X164835957Y-108139033D02*
X165500000Y-107474990D01*
X148205000Y-107205000D02*
X149139033Y-108139033D01*
X148205000Y-104373000D02*
X148205000Y-107205000D01*
D21*
X162460000Y-116200000D02*
X162460000Y-115000000D01*
X163530000Y-117270000D02*
X162460000Y-116200000D01*
X162460000Y-115000000D02*
X162460000Y-113638000D01*
X163050000Y-113048000D02*
X163050000Y-112000000D01*
X162460000Y-113638000D02*
X163050000Y-113048000D01*
X146920000Y-49676000D02*
X146920000Y-48500000D01*
X146920000Y-50374000D02*
X146920000Y-49676000D01*
X147600000Y-51054000D02*
X146920000Y-50374000D01*
X166500000Y-50912500D02*
X159624500Y-50912500D01*
X159624500Y-50912500D02*
X159512000Y-50800000D01*
D22*
X173228000Y-132770000D02*
X173300000Y-132842000D01*
D21*
X163530000Y-117270000D02*
X169848000Y-117270000D01*
X173482000Y-120904000D02*
X173482000Y-132842000D01*
X169848000Y-117270000D02*
X173482000Y-120904000D01*
X173482000Y-132842000D02*
X173482000Y-133858000D01*
X173482000Y-133858000D02*
X174498000Y-134874000D01*
X174498000Y-134874000D02*
X179578000Y-134874000D01*
X180594000Y-133858000D02*
X180594000Y-132842000D01*
X179578000Y-134874000D02*
X180594000Y-133858000D01*
D22*
%TO.N,Net-(J3-Pad2)*%
X157700000Y-110500000D02*
X157700000Y-111300000D01*
X148715001Y-111675001D02*
X147540000Y-110500000D01*
X157324999Y-111675001D02*
X148715001Y-111675001D01*
X157700000Y-111300000D02*
X157324999Y-111675001D01*
%TO.N,/CPU_D_CE#*%
X149500000Y-96500000D02*
X149500000Y-88500000D01*
X148855000Y-102037548D02*
X149434686Y-101457862D01*
X148855000Y-104373000D02*
X148855000Y-102037548D01*
%TO.N,/CPU_WAIT#*%
X177740000Y-98044000D02*
X179500000Y-99804000D01*
X179500000Y-99804000D02*
X179500000Y-107000000D01*
X176137000Y-110363000D02*
X174244000Y-110363000D01*
X179500000Y-107000000D02*
X176137000Y-110363000D01*
%TO.N,/CPU_D0*%
X164525023Y-92525023D02*
X162424000Y-90424000D01*
X164525023Y-106748388D02*
X164525023Y-92525023D01*
X163584389Y-107689022D02*
X164525023Y-106748388D01*
X150359611Y-107689022D02*
X163584389Y-107689022D01*
X149505000Y-106834411D02*
X150359611Y-107689022D01*
X149505000Y-104373000D02*
X149505000Y-106834411D01*
%TO.N,/CPU_D1*%
X164075012Y-94494511D02*
X162544501Y-92964000D01*
X164075012Y-106124988D02*
X164075012Y-94494511D01*
X162960989Y-107239011D02*
X164075012Y-106124988D01*
X152266230Y-107239011D02*
X162960989Y-107239011D01*
X150155000Y-105127781D02*
X152266230Y-107239011D01*
X150155000Y-104373000D02*
X150155000Y-105127781D01*
%TO.N,/CPU_D2*%
X150805000Y-105123000D02*
X150805000Y-104373000D01*
X160711000Y-106789000D02*
X152471000Y-106789000D01*
X161374999Y-106125001D02*
X160711000Y-106789000D01*
X152471000Y-106789000D02*
X150805000Y-105123000D01*
X161374999Y-86469001D02*
X161374999Y-106125001D01*
X162500000Y-85344000D02*
X161374999Y-86469001D01*
%TO.N,/CPU_D3*%
X151455000Y-103623000D02*
X151000000Y-103168000D01*
X151455000Y-104373000D02*
X151455000Y-103623000D01*
X151000000Y-103168000D02*
X151000000Y-103000000D01*
%TO.N,/CPU_D4*%
X151731113Y-103117408D02*
X151731113Y-102231113D01*
X151731113Y-102231113D02*
X151500000Y-102000000D01*
X152105000Y-103491295D02*
X151731113Y-103117408D01*
X151500000Y-102000000D02*
X150274990Y-102000000D01*
X152105000Y-104373000D02*
X152105000Y-103491295D01*
%TO.N,/CPU_D5*%
X152755000Y-103068291D02*
X152568793Y-102882084D01*
X152755000Y-104373000D02*
X152755000Y-103068291D01*
%TO.N,/CPU_D6*%
X153405000Y-104373000D02*
X153405000Y-102620319D01*
X153405000Y-102620319D02*
X153511605Y-102513714D01*
%TO.N,/CPU_D7*%
X154055000Y-104373000D02*
X154512660Y-103915340D01*
X154512660Y-103915340D02*
X154512660Y-102512660D01*
%TO.N,/CPU_WR#*%
X148205000Y-98573000D02*
X148205000Y-96389000D01*
X147320000Y-95504000D02*
X143764000Y-95504000D01*
X148205000Y-96389000D02*
X147320000Y-95504000D01*
X144942181Y-101998999D02*
X145735061Y-101206119D01*
X146321881Y-101206119D02*
X148205000Y-99323000D01*
X143223999Y-101998999D02*
X144942181Y-101998999D01*
X142638999Y-106204001D02*
X142638999Y-102583999D01*
X145034998Y-108600000D02*
X142638999Y-106204001D01*
X168100000Y-108600000D02*
X145034998Y-108600000D01*
X148205000Y-99323000D02*
X148205000Y-98573000D01*
X142638999Y-102583999D02*
X143223999Y-101998999D01*
X173576000Y-103124000D02*
X168100000Y-108600000D01*
X145735061Y-101206119D02*
X146321881Y-101206119D01*
X177740000Y-103124000D02*
X173576000Y-103124000D01*
%TO.N,/CPU_RD#*%
X177704000Y-105700000D02*
X177740000Y-105664000D01*
X172900000Y-105700000D02*
X177704000Y-105700000D01*
X169412001Y-109187999D02*
X172900000Y-105700000D01*
X144986586Y-109187999D02*
X169412001Y-109187999D01*
X142188988Y-106390401D02*
X144986586Y-109187999D01*
X142188988Y-99619012D02*
X142188988Y-106390401D01*
X143764000Y-98044000D02*
X142188988Y-99619012D01*
%TO.N,/MCLR#*%
X143764000Y-49116000D02*
X144380000Y-48500000D01*
X143764000Y-57404000D02*
X143764000Y-49116000D01*
X144380000Y-48500000D02*
X144380000Y-48120000D01*
X144380000Y-48120000D02*
X145757001Y-46742999D01*
X174500000Y-48500000D02*
X181000000Y-48500000D01*
X174000000Y-49000000D02*
X174500000Y-48500000D01*
X170000000Y-49000000D02*
X174000000Y-49000000D01*
X166587500Y-49000000D02*
X166500000Y-49087500D01*
X170000000Y-49000000D02*
X166587500Y-49000000D01*
X165165500Y-49087500D02*
X162820999Y-46742999D01*
X166500000Y-49087500D02*
X165165500Y-49087500D01*
X145757001Y-46742999D02*
X162820999Y-46742999D01*
%TO.N,/SD_CS#*%
X147760000Y-113000000D02*
X149760000Y-115000000D01*
X141288966Y-63211034D02*
X141288966Y-109788966D01*
X144500000Y-113000000D02*
X147760000Y-113000000D01*
X143141001Y-61358999D02*
X141288966Y-63211034D01*
X145770004Y-62825002D02*
X144304001Y-61358999D01*
X141288966Y-109788966D02*
X144500000Y-113000000D01*
X144304001Y-61358999D02*
X143141001Y-61358999D01*
X151748002Y-62825002D02*
X145770004Y-62825002D01*
X152089004Y-62484000D02*
X151748002Y-62825002D01*
X159004000Y-62484000D02*
X152089004Y-62484000D01*
X149760000Y-117020000D02*
X153160000Y-120420000D01*
X149760000Y-115000000D02*
X149760000Y-117020000D01*
X171196000Y-121666000D02*
X169950000Y-120420000D01*
X171196000Y-126087500D02*
X171196000Y-121666000D01*
X153160000Y-120420000D02*
X169950000Y-120420000D01*
%TO.N,/SD_SCK*%
X143764000Y-100584000D02*
X145761129Y-100584000D01*
X145761129Y-100584000D02*
X145864011Y-100481118D01*
%TO.N,/CPU_A0*%
X144970156Y-61150156D02*
X166075166Y-61150156D01*
X143764000Y-59944000D02*
X144970156Y-61150156D01*
X166075166Y-61150156D02*
X166675165Y-61750155D01*
%TO.N,/CPU_A1*%
X145128998Y-63848998D02*
X166015260Y-63848998D01*
X143764000Y-62484000D02*
X145128998Y-63848998D01*
X166015260Y-63848998D02*
X166575021Y-63289237D01*
%TO.N,/CPU_A2*%
X143764000Y-65024000D02*
X143256000Y-65024000D01*
X166628411Y-66149001D02*
X166587010Y-66190402D01*
X144930402Y-66190402D02*
X166587010Y-66190402D01*
X143764000Y-65024000D02*
X144930402Y-66190402D01*
%TO.N,/CPU_A3*%
X143764000Y-67564000D02*
X144909637Y-68709637D01*
X144909637Y-68709637D02*
X167651956Y-68709637D01*
X167672592Y-68689001D02*
X167651956Y-68709637D01*
%TO.N,/CPU_A4*%
X144889001Y-71229001D02*
X176325001Y-71229001D01*
X176325001Y-71229001D02*
X177740000Y-72644000D01*
X143764000Y-70104000D02*
X144889001Y-71229001D01*
%TO.N,/CPU_A5*%
X178865001Y-72103999D02*
X177740000Y-70978998D01*
X178280001Y-73769001D02*
X178865001Y-73184001D01*
X177740000Y-70978998D02*
X177740000Y-70104000D01*
X178865001Y-73184001D02*
X178865001Y-72103999D01*
X144889001Y-73769001D02*
X178280001Y-73769001D01*
X143764000Y-72644000D02*
X144889001Y-73769001D01*
%TO.N,/CPU_A6*%
X143764000Y-90424000D02*
X142500000Y-89160000D01*
X155186812Y-79000000D02*
X178500000Y-79000000D01*
X150186812Y-84000000D02*
X155186812Y-79000000D01*
X142500000Y-84500000D02*
X143000000Y-84000000D01*
X179249989Y-78250011D02*
X179249989Y-73435424D01*
X142500000Y-89160000D02*
X142500000Y-84500000D01*
X179249989Y-71852576D02*
X179249989Y-69073989D01*
X179249989Y-73435424D02*
X179315012Y-73370401D01*
X178500000Y-79000000D02*
X179249989Y-78250011D01*
X179315012Y-73370401D02*
X179315012Y-71917599D01*
X179315012Y-71917599D02*
X179249989Y-71852576D01*
X179249989Y-69073989D02*
X177740000Y-67564000D01*
X143000000Y-84000000D02*
X150186812Y-84000000D01*
%TO.N,/CPU_A7*%
X166540000Y-79874998D02*
X163959994Y-79874998D01*
X144895370Y-87884000D02*
X143764000Y-87884000D01*
X179700000Y-80300000D02*
X178321001Y-81678999D01*
X177740000Y-65024000D02*
X179765023Y-67049023D01*
X151725001Y-87774999D02*
X145004371Y-87774999D01*
X157821001Y-81678999D02*
X151725001Y-87774999D01*
X162750003Y-81678999D02*
X157821001Y-81678999D01*
X163625001Y-80804001D02*
X162750003Y-81678999D01*
X179765023Y-73556801D02*
X179700000Y-73621824D01*
X179765023Y-67049023D02*
X179765023Y-73556801D01*
X145004371Y-87774999D02*
X144895370Y-87884000D01*
X163625001Y-80209991D02*
X163625001Y-80804001D01*
X179700000Y-73621824D02*
X179700000Y-80300000D01*
X163959994Y-79874998D02*
X163625001Y-80209991D01*
X168344001Y-81678999D02*
X166540000Y-79874998D01*
X178321001Y-81678999D02*
X168344001Y-81678999D01*
%TO.N,/MCU_D1*%
X149505000Y-98573000D02*
X149505000Y-98709000D01*
X143764000Y-104789002D02*
X143764000Y-105664000D01*
X145449990Y-103103012D02*
X143764000Y-104789002D01*
X145449990Y-103061820D02*
X145449990Y-103103012D01*
X146193605Y-102318205D02*
X145449990Y-103061820D01*
X146681795Y-102318205D02*
X146193605Y-102318205D01*
X149505000Y-99495000D02*
X146681795Y-102318205D01*
X149505000Y-98573000D02*
X149505000Y-99495000D01*
%TO.N,/MCU_D0*%
X144453590Y-103124000D02*
X145921462Y-101656128D01*
X143764000Y-103124000D02*
X144453590Y-103124000D01*
X146521872Y-101656128D02*
X148855000Y-99323000D01*
X148855000Y-99323000D02*
X148855000Y-98573000D01*
X145921462Y-101656128D02*
X146521872Y-101656128D01*
%TO.N,/MCU_D7*%
X155490999Y-89009001D02*
X159990999Y-89009001D01*
X153405000Y-98573000D02*
X153329999Y-98497999D01*
X153329999Y-95015827D02*
X154125024Y-94220802D01*
X154125024Y-94220802D02*
X154125024Y-90374976D01*
X154125024Y-90374976D02*
X155490999Y-89009001D01*
X160924988Y-84724988D02*
X159004000Y-82804000D01*
X160924988Y-88075012D02*
X160924988Y-84724988D01*
X159990999Y-89009001D02*
X160924988Y-88075012D01*
X153329999Y-98497999D02*
X153329999Y-95015827D01*
%TO.N,/MCU_D6*%
X157480000Y-85344000D02*
X153675013Y-89148987D01*
X152755000Y-94954415D02*
X152755000Y-98573000D01*
X153675013Y-89148987D02*
X153675013Y-94034402D01*
X153675013Y-94034402D02*
X152755000Y-94954415D01*
X159004000Y-85344000D02*
X157480000Y-85344000D01*
%TO.N,/MCU_D5*%
X153225002Y-93848002D02*
X153225002Y-88774998D01*
X160129001Y-84803999D02*
X160129001Y-86758999D01*
X152105000Y-94968004D02*
X153225002Y-93848002D01*
X158000000Y-84000000D02*
X159325002Y-84000000D01*
X153225002Y-88774998D02*
X158000000Y-84000000D01*
X159325002Y-84000000D02*
X160129001Y-84803999D01*
X160129001Y-86758999D02*
X159004000Y-87884000D01*
X152105000Y-98573000D02*
X152105000Y-94968004D01*
%TO.N,/MCU_D4*%
X151455000Y-99323000D02*
X152589000Y-100457000D01*
X151455000Y-98573000D02*
X151455000Y-99323000D01*
X152589000Y-100457000D02*
X155194000Y-100457000D01*
X155194000Y-100457000D02*
X156718000Y-98933000D01*
X156718000Y-92710000D02*
X159004000Y-90424000D01*
X156718000Y-98933000D02*
X156718000Y-92710000D01*
%TO.N,/MCU_D3*%
X150805000Y-99323000D02*
X152447000Y-100965000D01*
X150805000Y-98573000D02*
X150805000Y-99323000D01*
X152447000Y-100965000D02*
X155194000Y-100965000D01*
X157353000Y-103124000D02*
X159004000Y-103124000D01*
X155194000Y-100965000D02*
X157353000Y-103124000D01*
%TO.N,/MCU_D2*%
X150155000Y-98573000D02*
X150155000Y-99323000D01*
X154755011Y-101415011D02*
X159004000Y-105664000D01*
X150155000Y-99323000D02*
X152247011Y-101415011D01*
X152247011Y-101415011D02*
X154755011Y-101415011D01*
%TO.N,/ICSP_PGC*%
X159004000Y-59944000D02*
X160056000Y-59944000D01*
X160129001Y-54089001D02*
X154540000Y-48500000D01*
X160129001Y-59870999D02*
X160129001Y-54089001D01*
X160056000Y-59944000D02*
X160129001Y-59870999D01*
%TO.N,/MCU_RB1*%
X159004000Y-72644000D02*
X154444000Y-72644000D01*
%TO.N,/MCU_RE1*%
X146400000Y-61900000D02*
X151300002Y-61900000D01*
X144680000Y-115000000D02*
X144680000Y-116232000D01*
X144680000Y-116232000D02*
X150368000Y-121920000D01*
X150368000Y-121920000D02*
X167132000Y-121920000D01*
%TO.N,/MCU_RE0*%
X146600000Y-58800000D02*
X151200000Y-58800000D01*
X147220000Y-115000000D02*
X145758000Y-113538000D01*
X145758000Y-113538000D02*
X144272000Y-113538000D01*
X144272000Y-113538000D02*
X143002000Y-112268000D01*
X143002000Y-112268000D02*
X141986000Y-112268000D01*
X182575001Y-118922999D02*
X182575001Y-61315001D01*
X178054000Y-123444000D02*
X182575001Y-118922999D01*
X182575001Y-61315001D02*
X181400000Y-60140000D01*
X178054000Y-126087500D02*
X178054000Y-123444000D01*
%TO.N,/MCU_RE2*%
X146700000Y-65000000D02*
X151000000Y-65000000D01*
%TO.N,/MCU_WAIT#*%
X141738977Y-109523979D02*
X141738977Y-94989023D01*
X144665007Y-112450009D02*
X141738977Y-109523979D01*
X141738977Y-94989023D02*
X143764000Y-92964000D01*
X160599991Y-112450009D02*
X144665007Y-112450009D01*
X162687000Y-110363000D02*
X160599991Y-112450009D01*
X171704000Y-110363000D02*
X162687000Y-110363000D01*
%TO.N,Net-(J1-Pad4)*%
X159004000Y-55504000D02*
X152000000Y-48500000D01*
X159004000Y-57404000D02*
X159004000Y-55504000D01*
%TO.N,Net-(D1-Pad1)*%
X170942000Y-128166500D02*
X171196000Y-127912500D01*
X170942000Y-132842000D02*
X170942000Y-128166500D01*
%TO.N,Net-(D2-Pad1)*%
X178054000Y-132842000D02*
X178054000Y-127912500D01*
%TD*%
M02*
